<?xml version="1.0" standalone="no"?>
<!DOCTYPE svg PUBLIC "-//W3C//DTD SVG 1.1//EN" "http://www.w3.org/Graphics/SVG/1.1/DTD/svg11.dtd" >
<svg>
<metadata>
Created by FontForge 20110222 at Fri Sep 11 19:23:28 2015
 By www-data
Copyright (C) 2001, 2008 Hoefler &#38; Frere-Jones. http://www.typography.com
</metadata>
<defs>
<font id="Gotham-Book" horiz-adv-x="400" >
  <font-face 
    font-family="Gotham Book"
    font-weight="325"
    font-stretch="normal"
    units-per-em="1000"
    panose-1="0 0 0 0 0 0 0 0 0 0"
    ascent="800"
    descent="-200"
    x-height="517"
    cap-height="700"
    bbox="-215 -244 1159 994"
    underline-thickness="50"
    underline-position="-50"
    stemh="69"
    stemv="79"
    unicode-range="U+0020-FB04"
  />
<missing-glyph horiz-adv-x="500" 
d="M0 -200v1000h500v-1000h-500zM71 750l179 -390l179 390h-358zM50 -76l172 376l-172 376v-752zM450 676l-172 -376l172 -376v752zM250 240l-179 -390h358z" />
    <glyph glyph-name="f_f" unicode="ff" horiz-adv-x="735" 
d="M115 0v449h-71v67h71v45c0 59 16 104 45 133c26 26 64 40 111 40c36 0 60 -4 85 -13v-67c-28 8 -49 13 -75 13c-60 0 -90 -36 -90 -110v-42h164v-66h-163v-449h-77zM483 0v449h-71v67h71v45c0 59 15 104 44 133c27 26 64 40 111 40c36 0 61 -4 85 -13v-67
c-27 8 -48 13 -74 13c-61 0 -90 -36 -90 -110v-42h163v-66h-163v-449h-76z" />
    <glyph glyph-name="fi" unicode="fi" horiz-adv-x="631" 
d="M115 0v449h-71v67h71v45c0 59 16 104 45 133c26 26 64 40 111 40c36 0 60 -4 85 -13v-67c-28 8 -49 13 -75 13c-60 0 -90 -36 -90 -110v-42h164v-66h-163v-449h-77zM461 0v517h76v-517h-76zM455 630v85h88v-85h-88z" />
    <glyph glyph-name="fl" unicode="fl" horiz-adv-x="631" 
d="M115 0v449h-71v67h71v45c0 59 16 104 45 133c26 26 64 40 111 40c36 0 60 -4 85 -13v-67c-28 8 -49 13 -75 13c-60 0 -90 -36 -90 -110v-42h164v-66h-163v-449h-77zM461 0v730h76v-730h-76z" />
    <glyph glyph-name="f_f_i" unicode="ffi" horiz-adv-x="998" 
d="M115 0v449h-71v67h71v45c0 59 16 104 45 133c26 26 64 40 111 40c36 0 60 -4 85 -13v-67c-28 8 -49 13 -75 13c-60 0 -90 -36 -90 -110v-42h164v-66h-163v-449h-77zM483 0v449h-71v67h71v45c0 59 15 104 44 133c27 26 64 40 111 40c36 0 61 -4 85 -13v-67
c-27 8 -48 13 -74 13c-61 0 -90 -36 -90 -110v-42h163v-66h-163v-449h-76zM828 0v517h77v-517h-77zM823 630v85h87v-85h-87z" />
    <glyph glyph-name="f_f_l" unicode="ffl" horiz-adv-x="998" 
d="M115 0v449h-71v67h71v45c0 59 16 104 45 133c26 26 64 40 111 40c36 0 60 -4 85 -13v-67c-28 8 -49 13 -75 13c-60 0 -90 -36 -90 -110v-42h164v-66h-163v-449h-77zM483 0v449h-71v67h71v45c0 59 15 104 44 133c27 26 64 40 111 40c36 0 61 -4 85 -13v-67
c-27 8 -48 13 -74 13c-61 0 -90 -36 -90 -110v-42h163v-66h-163v-449h-76zM828 0v730h77v-730h-77z" />
    <glyph glyph-name=".notdef" horiz-adv-x="500" 
d="M0 -200v1000h500v-1000h-500zM71 750l179 -390l179 390h-358zM50 -76l172 376l-172 376v-752zM450 676l-172 -376l172 -376v752zM250 240l-179 -390h358z" />
    <glyph glyph-name="A" unicode="A" horiz-adv-x="790" 
d="M39 0l319 705h74l319 -705h-85l-82 185h-381l-83 -185h-81zM234 257h319l-159 356z" />
    <glyph glyph-name="B" unicode="B" horiz-adv-x="722" 
d="M99 0v700h298c80 0 143 -23 183 -62c29 -30 45 -67 45 -112v-2c0 -91 -56 -138 -111 -162c83 -25 150 -73 150 -169v-2c0 -120 -101 -191 -254 -191h-311zM545 513v2c0 69 -55 114 -155 114h-213v-241h207c95 0 161 43 161 125zM584 198c0 76 -64 120 -186 120h-221v-247
h235c106 0 172 47 172 125v2z" />
    <glyph glyph-name="C" unicode="C" horiz-adv-x="738" 
d="M419 -12c-202 0 -351 159 -351 360v2c0 198 148 362 354 362c127 0 203 -45 273 -111l-54 -58c-59 56 -125 96 -220 96c-155 0 -271 -126 -271 -287v-2c0 -162 117 -289 271 -289c96 0 159 37 226 101l52 -51c-73 -74 -153 -123 -280 -123z" />
    <glyph glyph-name="D" unicode="D" horiz-adv-x="782" 
d="M99 0v700h243c220 0 372 -151 372 -348v-2c0 -197 -152 -350 -372 -350h-243zM342 627h-164v-554h164c177 0 290 120 290 275v2c0 155 -113 277 -290 277z" />
    <glyph glyph-name="E" unicode="E" horiz-adv-x="670" 
d="M99 0v700h506v-72h-427v-239h382v-72h-382v-245h432v-72h-511z" />
    <glyph glyph-name="F" unicode="F" horiz-adv-x="656" 
d="M99 0v700h503v-73h-424v-250h379v-72h-379v-305h-79z" />
    <glyph glyph-name="G" unicode="G" horiz-adv-x="784" 
d="M424 -12c-220 0 -356 160 -356 360v2c0 192 141 362 351 362c118 0 191 -34 261 -93l-51 -60c-54 47 -114 80 -213 80c-155 0 -266 -131 -266 -287v-2c0 -167 107 -291 277 -291c80 0 154 31 202 70v174h-213v71h289v-279c-65 -58 -163 -107 -281 -107z" />
    <glyph glyph-name="H" unicode="H" horiz-adv-x="760" 
d="M99 0v700h79v-311h404v311h79v-700h-79v315h-404v-315h-79z" />
    <glyph glyph-name="I" unicode="I" horiz-adv-x="291" 
d="M106 0v700h79v-700h-79z" />
    <glyph glyph-name="J" unicode="J" horiz-adv-x="553" 
d="M247 -10c-105 0 -172 52 -216 124l57 49c43 -65 87 -100 160 -100c79 0 137 57 137 168v469h80v-468c0 -82 -24 -144 -64 -184c-39 -38 -92 -58 -154 -58z" />
    <glyph glyph-name="K" unicode="K" horiz-adv-x="719" 
d="M99 0v700h79v-418l402 418h102l-300 -306l313 -394h-99l-269 339l-149 -151v-188h-79z" />
    <glyph glyph-name="L" unicode="L" horiz-adv-x="619" 
d="M99 0v700h79v-627h394v-73h-473z" />
    <glyph glyph-name="M" unicode="M" horiz-adv-x="868" 
d="M99 0v700h80l255 -382l255 382h80v-700h-79v567l-255 -375h-4l-255 374v-566h-77z" />
    <glyph glyph-name="N" unicode="N" horiz-adv-x="790" 
d="M99 0v700h74l441 -561v561h77v-700h-63l-452 574v-574h-77z" />
    <glyph glyph-name="O" unicode="O" horiz-adv-x="850" 
d="M424 -12c-213 0 -356 167 -356 360v2c0 193 145 362 358 362s356 -167 356 -360v-2c0 -193 -145 -362 -358 -362zM426 61c160 0 274 128 274 287v2c0 159 -116 289 -276 289s-274 -128 -274 -287v-2c0 -159 116 -289 276 -289z" />
    <glyph glyph-name="P" unicode="P" horiz-adv-x="668" 
d="M99 0v700h262c158 0 262 -84 262 -222v-2c0 -151 -126 -229 -275 -229h-170v-247h-79zM178 319h173c116 0 192 62 192 154v2c0 100 -75 152 -188 152h-177v-308z" />
    <glyph glyph-name="Q" unicode="Q" horiz-adv-x="850" 
d="M791 38l-54 -59l-93 83c-59 -46 -134 -74 -220 -74c-213 0 -356 167 -356 360v2c0 193 145 362 358 362s356 -167 356 -360v-2c0 -87 -31 -170 -83 -234zM426 61c62 0 118 19 162 52l-131 112l53 59l131 -119c38 50 59 113 59 183v2c0 159 -116 289 -276 289
s-274 -128 -274 -287v-2c0 -159 116 -289 276 -289z" />
    <glyph glyph-name="Q.alt" horiz-adv-x="850" 
d="M709 -101l-131 122c-45 -21 -97 -33 -154 -33c-213 0 -356 167 -356 360v2c0 193 145 362 358 362s356 -167 356 -360v-2c0 -111 -48 -214 -129 -282l174 -165v-4h-118zM426 61c160 0 274 128 274 287v2c0 159 -116 289 -276 289s-274 -128 -274 -287v-2
c0 -159 116 -289 276 -289z" />
    <glyph glyph-name="R" unicode="R" horiz-adv-x="723" 
d="M99 0v700h301c86 0 155 -26 199 -70c34 -34 54 -83 54 -138v-2c0 -116 -80 -184 -190 -204l215 -286h-97l-203 272h-200v-272h-79zM178 343h215c105 0 180 54 180 144v2c0 86 -66 138 -179 138h-216v-284z" />
    <glyph glyph-name="S" unicode="S" horiz-adv-x="640" 
d="M339 -10c-111 0 -202 37 -286 112l49 58c73 -66 143 -99 240 -99c94 0 156 50 156 119v2c0 65 -35 102 -182 133c-161 35 -235 87 -235 202v2c0 110 97 191 230 191c102 0 175 -29 246 -86l-46 -61c-65 53 -130 76 -202 76c-91 0 -149 -50 -149 -113v-2
c0 -66 36 -103 190 -136c156 -34 228 -91 228 -198v-2c0 -120 -100 -198 -239 -198z" />
    <glyph glyph-name="T" unicode="T" horiz-adv-x="648" 
d="M284 0v627h-235v73h550v-73h-235v-627h-80z" />
    <glyph glyph-name="U" unicode="U" horiz-adv-x="759" 
d="M379 -11c-173 0 -291 106 -291 304v407h79v-402c0 -151 81 -236 214 -236c129 0 211 78 211 231v407h79v-401c0 -204 -117 -310 -292 -310z" />
    <glyph glyph-name="V" unicode="V" horiz-adv-x="750" 
d="M340 -5l-301 705h88l249 -603l250 603h85l-301 -705h-70z" />
    <glyph glyph-name="W" unicode="W" horiz-adv-x="1107" 
d="M295 -5l-250 705h86l200 -583l192 585h65l192 -585l200 583h83l-250 -705h-67l-192 568l-193 -568h-66z" />
    <glyph glyph-name="X" unicode="X" horiz-adv-x="725" 
d="M577 700h92l-258 -343l268 -357h-94l-224 302l-224 -302h-91l268 357l-258 343h93l214 -288z" />
    <glyph glyph-name="Y" unicode="Y" horiz-adv-x="716" 
d="M318 0v277l-291 423h96l236 -350l238 350h92l-291 -422v-278h-80z" />
    <glyph glyph-name="Z" unicode="Z" horiz-adv-x="693" 
d="M67 0v53l453 576h-438v71h546v-53l-454 -576h454v-71h-561z" />
    <glyph glyph-name="a" unicode="a" horiz-adv-x="579" 
d="M240 -11c-96 0 -193 55 -193 161v2c0 109 90 167 221 167c66 0 113 -9 159 -22v18c0 93 -57 141 -154 141c-61 0 -109 -16 -157 -38l-23 63c57 26 113 43 188 43c73 0 129 -19 167 -57c35 -35 53 -85 53 -151v-316h-74v78c-36 -47 -96 -89 -187 -89zM255 50
c95 0 173 58 173 140v50c-38 11 -89 22 -152 22c-97 0 -151 -42 -151 -107v-2c0 -65 60 -103 130 -103z" />
    <glyph glyph-name="a.alt" horiz-adv-x="664" 
d="M303 -11c-124 0 -247 98 -247 268v2c0 169 123 269 247 269c96 0 158 -52 198 -110v99h77v-517h-77v104c-42 -62 -103 -115 -198 -115zM317 58c96 0 187 81 187 200v2c0 119 -91 199 -187 199c-100 0 -182 -74 -182 -199v-2c0 -122 85 -200 182 -200z" />
    <glyph glyph-name="b" unicode="b" horiz-adv-x="664" 
d="M361 -11c-96 0 -158 52 -198 110v-99h-77v730h77v-317c42 62 103 115 198 115c124 0 247 -98 247 -268v-2c0 -169 -122 -269 -247 -269zM347 58c100 0 182 74 182 199v2c0 122 -84 200 -182 200c-96 0 -187 -81 -187 -199v-2c0 -120 91 -200 187 -200z" />
    <glyph glyph-name="c" unicode="c" horiz-adv-x="571" 
d="M319 -12c-151 0 -265 123 -265 268v2c0 146 114 270 265 270c98 0 159 -41 207 -92l-51 -54c-41 43 -87 78 -157 78c-105 0 -185 -89 -185 -200v-2c0 -112 82 -201 190 -201c66 0 117 33 158 77l49 -46c-52 -58 -114 -100 -211 -100z" />
    <glyph glyph-name="d" unicode="d" horiz-adv-x="664" 
d="M303 -11c-124 0 -247 98 -247 268v2c0 169 123 269 247 269c96 0 158 -52 198 -110v312h77v-730h-77v104c-42 -62 -103 -115 -198 -115zM317 58c96 0 187 81 187 200v2c0 119 -91 199 -187 199c-100 0 -182 -74 -182 -199v-2c0 -122 85 -200 182 -200z" />
    <glyph glyph-name="e" unicode="e" horiz-adv-x="592" 
d="M312 -12c-142 0 -258 109 -258 269v2c0 149 105 269 248 269c153 0 241 -122 241 -273c0 -10 0 -16 -1 -25h-410c11 -112 90 -175 182 -175c71 0 121 29 163 73l48 -43c-52 -58 -115 -97 -213 -97zM132 287h333c-8 94 -62 176 -165 176c-90 0 -158 -75 -168 -176z" />
    <glyph glyph-name="f" unicode="f" horiz-adv-x="367" 
d="M115 0v449h-71v67h71v45c0 59 16 104 45 133c26 26 64 40 111 40c36 0 60 -4 85 -13v-67c-28 8 -49 13 -75 13c-60 0 -90 -36 -90 -110v-42h164v-66h-163v-449h-77z" />
    <glyph glyph-name="g" unicode="g" horiz-adv-x="664" 
d="M315 -162c-86 0 -166 24 -235 72l35 60c59 -43 125 -66 199 -66c114 0 188 63 188 184v61c-45 -60 -108 -109 -203 -109c-124 0 -243 93 -243 242v2c0 151 120 244 243 244c97 0 160 -48 202 -104v93h77v-427c0 -80 -24 -141 -66 -183c-46 -46 -115 -69 -197 -69z
M314 108c98 0 190 71 190 175v2c0 106 -92 175 -190 175s-179 -68 -179 -174v-2c0 -104 83 -176 179 -176z" />
    <glyph glyph-name="h" unicode="h" horiz-adv-x="616" 
d="M86 0v730h77v-303c34 56 88 101 177 101c125 0 198 -84 198 -207v-321h-77v302c0 96 -52 156 -143 156c-89 0 -155 -65 -155 -162v-296h-77z" />
    <glyph glyph-name="i" unicode="i" horiz-adv-x="263" 
d="M88 630v85h88v-85h-88zM93 0v517h77v-517h-77z" />
    <glyph glyph-name="j" unicode="j" horiz-adv-x="263" 
d="M88 630v85h88v-85h-88zM44 -163c-18 0 -31 1 -48 5v63c12 -2 27 -3 38 -3c35 0 59 21 59 69v546h77v-547c0 -91 -48 -133 -126 -133z" />
    <glyph glyph-name="k" unicode="k" horiz-adv-x="569" 
d="M86 0v730h77v-504l279 291h96l-217 -222l224 -295h-92l-185 241l-105 -106v-135h-77z" />
    <glyph glyph-name="l" unicode="l" horiz-adv-x="263" 
d="M93 0v730h77v-730h-77z" />
    <glyph glyph-name="m" unicode="m" horiz-adv-x="951" 
d="M86 0v517h77v-87c34 51 80 98 167 98c84 0 138 -45 166 -103c37 57 92 103 182 103c119 0 192 -80 192 -208v-320h-77v302c0 100 -50 156 -134 156c-78 0 -142 -58 -142 -160v-298h-77v304c0 97 -51 154 -133 154s-144 -68 -144 -163v-295h-77z" />
    <glyph glyph-name="n" unicode="n" horiz-adv-x="616" 
d="M86 0v517h77v-90c34 56 88 101 177 101c125 0 198 -84 198 -207v-321h-77v302c0 96 -52 156 -143 156c-89 0 -155 -65 -155 -162v-296h-77z" />
    <glyph glyph-name="o" unicode="o" horiz-adv-x="646" 
d="M322 -12c-155 0 -268 122 -268 268v2c0 146 114 270 270 270c155 0 269 -122 269 -268v-2c0 -146 -115 -270 -271 -270zM324 57c112 0 190 90 190 199v2c0 111 -83 202 -192 202c-112 0 -189 -91 -189 -200v-2c0 -111 82 -201 191 -201z" />
    <glyph glyph-name="p" unicode="p" horiz-adv-x="664" 
d="M86 -160v677h77v-104c42 62 103 115 198 115c124 0 247 -98 247 -268v-2c0 -169 -122 -269 -247 -269c-96 0 -158 52 -198 110v-259h-77zM347 58c100 0 182 74 182 199v2c0 122 -84 200 -182 200c-96 0 -187 -81 -187 -199v-2c0 -120 91 -200 187 -200z" />
    <glyph glyph-name="q" unicode="q" horiz-adv-x="664" 
d="M501 -160v264c-42 -62 -103 -115 -198 -115c-124 0 -247 98 -247 268v2c0 169 123 269 247 269c96 0 158 -52 198 -110v99h77v-677h-77zM317 58c96 0 187 81 187 200v2c0 119 -91 199 -187 199c-100 0 -182 -74 -182 -199v-2c0 -122 85 -200 182 -200z" />
    <glyph glyph-name="r" unicode="r" horiz-adv-x="405" 
d="M86 0v517h77v-135c38 86 113 148 211 144v-83h-6c-113 0 -205 -81 -205 -237v-206h-77z" />
    <glyph glyph-name="s" unicode="s" horiz-adv-x="498" 
d="M257 -10c-74 0 -156 29 -214 76l39 55c56 -42 118 -66 179 -66c62 0 107 32 107 82v2c0 52 -61 72 -129 91c-81 23 -171 51 -171 146v2c0 89 74 148 176 148c63 0 133 -22 186 -57l-35 -58c-48 31 -103 50 -153 50c-61 0 -100 -32 -100 -75v-2c0 -49 64 -68 133 -89
c80 -24 166 -55 166 -148v-2c0 -98 -81 -155 -184 -155z" />
    <glyph glyph-name="t" unicode="t" horiz-adv-x="404" 
d="M259 -9c-83 0 -146 41 -146 146v312h-72v68h72v156h77v-156h164v-68h-164v-302c0 -63 35 -86 87 -86c26 0 48 5 75 18v-66c-27 -14 -56 -22 -93 -22z" />
    <glyph glyph-name="u" unicode="u" horiz-adv-x="616" 
d="M276 -11c-125 0 -198 84 -198 207v321h77v-302c0 -96 52 -156 143 -156c88 0 155 65 155 162v296h76v-517h-76v90c-35 -56 -88 -101 -177 -101z" />
    <glyph glyph-name="v" unicode="v" horiz-adv-x="587" 
d="M259 -4l-224 521h85l174 -429l175 429h83l-225 -521h-68z" />
    <glyph glyph-name="w" unicode="w" horiz-adv-x="861" 
d="M223 -4l-181 521h82l136 -415l139 417h64l140 -417l136 415h80l-182 -521h-67l-139 408l-140 -408h-68z" />
    <glyph glyph-name="x" unicode="x" horiz-adv-x="574" 
d="M135 517l152 -202l154 202h86l-196 -253l204 -264h-89l-160 213l-161 -213h-86l202 263l-194 254h88z" />
    <glyph glyph-name="y" unicode="y" horiz-adv-x="591" 
d="M307 86l166 431h82l-217 -534c-44 -107 -94 -146 -172 -146c-43 0 -75 9 -110 26l26 61c25 -13 48 -19 81 -19c46 0 75 24 106 97l-235 515h85z" />
    <glyph glyph-name="z" unicode="z" horiz-adv-x="556" 
d="M56 0v49l343 403h-331v65h436v-49l-344 -403h344v-65h-448z" />
    <glyph glyph-name="Aacute" unicode="&#xc1;" horiz-adv-x="790" 
d="M39 0l319 705h74l319 -705h-85l-82 185h-381l-83 -185h-81zM234 257h319l-159 356zM363 772l100 129l79 -36l-115 -93h-64z" />
    <glyph glyph-name="aacute" unicode="&#xe1;" horiz-adv-x="579" 
d="M240 -11c-96 0 -193 55 -193 161v2c0 109 90 167 221 167c66 0 113 -9 159 -22v18c0 93 -57 141 -154 141c-61 0 -109 -16 -157 -38l-23 63c57 26 113 43 188 43c73 0 129 -19 167 -57c35 -35 53 -85 53 -151v-316h-74v78c-36 -47 -96 -89 -187 -89zM255 50
c95 0 173 58 173 140v50c-38 11 -89 22 -152 22c-97 0 -151 -42 -151 -107v-2c0 -65 60 -103 130 -103zM258 595l94 145l80 -37l-114 -108h-60z" />
    <glyph glyph-name="aacute.alt" horiz-adv-x="664" 
d="M304 595l94 145l80 -37l-114 -108h-60zM303 -11c-124 0 -247 98 -247 268v2c0 169 123 269 247 269c96 0 158 -52 198 -110v99h77v-517h-77v104c-42 -62 -103 -115 -198 -115zM317 58c96 0 187 81 187 200v2c0 119 -91 199 -187 199c-100 0 -182 -74 -182 -199v-2
c0 -122 85 -200 182 -200z" />
    <glyph glyph-name="Abreve" unicode="&#x102;" horiz-adv-x="790" 
d="M39 0l319 705h74l319 -705h-85l-82 185h-381l-83 -185h-81zM234 257h319l-159 356zM395 770c-83 0 -142 42 -148 114h60c11 -32 39 -52 88 -52s77 20 88 52h60c-6 -72 -65 -114 -148 -114z" />
    <glyph glyph-name="abreve" unicode="&#x103;" horiz-adv-x="579" 
d="M240 -11c-96 0 -193 55 -193 161v2c0 109 90 167 221 167c66 0 113 -9 159 -22v18c0 93 -57 141 -154 141c-61 0 -109 -16 -157 -38l-23 63c57 26 113 43 188 43c73 0 129 -19 167 -57c35 -35 53 -85 53 -151v-316h-74v78c-36 -47 -96 -89 -187 -89zM255 50
c95 0 173 58 173 140v50c-38 11 -89 22 -152 22c-97 0 -151 -42 -151 -107v-2c0 -65 60 -103 130 -103zM289 593c-83 0 -142 46 -148 125h56c12 -37 41 -63 92 -63s80 26 92 63h56c-6 -79 -65 -125 -148 -125z" />
    <glyph glyph-name="abreve.alt" horiz-adv-x="664" 
d="M303 -11c-124 0 -247 98 -247 268v2c0 169 123 269 247 269c96 0 158 -52 198 -110v99h77v-517h-77v104c-42 -62 -103 -115 -198 -115zM317 58c96 0 187 81 187 200v2c0 119 -91 199 -187 199c-100 0 -182 -74 -182 -199v-2c0 -122 85 -200 182 -200zM335 593
c-83 0 -142 46 -148 125h56c12 -37 41 -63 92 -63s80 26 92 63h56c-6 -79 -65 -125 -148 -125z" />
    <glyph glyph-name="Acircumflex" unicode="&#xc2;" horiz-adv-x="790" 
d="M39 0l319 705h74l319 -705h-85l-82 185h-381l-83 -185h-81zM234 257h319l-159 356zM249 770l110 118h72l110 -118h-72l-75 60l-75 -60h-70z" />
    <glyph glyph-name="acircumflex" unicode="&#xe2;" horiz-adv-x="579" 
d="M240 -11c-96 0 -193 55 -193 161v2c0 109 90 167 221 167c66 0 113 -9 159 -22v18c0 93 -57 141 -154 141c-61 0 -109 -16 -157 -38l-23 63c57 26 113 43 188 43c73 0 129 -19 167 -57c35 -35 53 -85 53 -151v-316h-74v78c-36 -47 -96 -89 -187 -89zM255 50
c95 0 173 58 173 140v50c-38 11 -89 22 -152 22c-97 0 -151 -42 -151 -107v-2c0 -65 60 -103 130 -103zM149 595l106 131h68l106 -131h-66l-75 67l-75 -67h-64z" />
    <glyph glyph-name="acircumflex.alt" horiz-adv-x="664" 
d="M195 595l106 131h68l106 -131h-66l-75 67l-75 -67h-64zM303 -11c-124 0 -247 98 -247 268v2c0 169 123 269 247 269c96 0 158 -52 198 -110v99h77v-517h-77v104c-42 -62 -103 -115 -198 -115zM317 58c96 0 187 81 187 200v2c0 119 -91 199 -187 199
c-100 0 -182 -74 -182 -199v-2c0 -122 85 -200 182 -200z" />
    <glyph glyph-name="Adieresis" unicode="&#xc4;" horiz-adv-x="790" 
d="M39 0l319 705h74l319 -705h-85l-82 185h-381l-83 -185h-81zM234 257h319l-159 356zM442 772v90h93v-90h-93zM255 772v90h93v-90h-93z" />
    <glyph glyph-name="adieresis" unicode="&#xe4;" horiz-adv-x="579" 
d="M240 -11c-96 0 -193 55 -193 161v2c0 109 90 167 221 167c66 0 113 -9 159 -22v18c0 93 -57 141 -154 141c-61 0 -109 -16 -157 -38l-23 63c57 26 113 43 188 43c73 0 129 -19 167 -57c35 -35 53 -85 53 -151v-316h-74v78c-36 -47 -96 -89 -187 -89zM255 50
c95 0 173 58 173 140v50c-38 11 -89 22 -152 22c-97 0 -151 -42 -151 -107v-2c0 -65 60 -103 130 -103zM332 595v95h89v-95h-89zM157 595v95h89v-95h-89z" />
    <glyph glyph-name="adieresis.alt" horiz-adv-x="664" 
d="M378 595v95h89v-95h-89zM203 595v95h89v-95h-89zM303 -11c-124 0 -247 98 -247 268v2c0 169 123 269 247 269c96 0 158 -52 198 -110v99h77v-517h-77v104c-42 -62 -103 -115 -198 -115zM317 58c96 0 187 81 187 200v2c0 119 -91 199 -187 199c-100 0 -182 -74 -182 -199
v-2c0 -122 85 -200 182 -200z" />
    <glyph glyph-name="AE" unicode="&#xc6;" horiz-adv-x="1045" 
d="M17 0l411 700h552v-72h-409v-239h364v-72h-364v-245h414v-72h-494v185h-282l-109 -185h-83zM249 257h242v373h-24z" />
    <glyph glyph-name="ae" unicode="&#xe6;" horiz-adv-x="953" 
d="M242 -11c-100 0 -195 55 -195 161v2c0 109 90 167 217 167c63 0 107 -9 153 -22v18c0 93 -54 141 -149 141c-59 0 -104 -16 -152 -38l-23 63c57 26 109 43 183 43c98 0 164 -37 190 -111c41 70 113 115 198 115c152 0 241 -122 241 -273c0 -10 -1 -16 -2 -25h-409
c10 -112 90 -175 181 -175c72 0 121 29 163 73l48 -43c-51 -58 -115 -97 -213 -97c-83 0 -159 39 -205 104c-55 -57 -130 -103 -226 -103zM493 287h333c-8 94 -62 176 -164 176c-91 0 -159 -75 -169 -176zM251 51c76 0 138 38 186 92c-12 30 -19 62 -21 98
c-38 10 -87 21 -144 21c-94 0 -147 -42 -147 -107v-2c0 -64 57 -102 126 -102z" />
    <glyph glyph-name="AEacute" unicode="&#x1fc;" horiz-adv-x="1045" 
d="M597 762l100 129l79 -36l-115 -93h-64zM17 0l411 700h552v-72h-409v-239h364v-72h-364v-245h414v-72h-494v185h-282l-109 -185h-83zM249 257h242v373h-24z" />
    <glyph glyph-name="aeacute" unicode="&#x1fd;" horiz-adv-x="953" 
d="M444 595l94 145l80 -37l-114 -108h-60zM242 -11c-100 0 -195 55 -195 161v2c0 109 90 167 217 167c63 0 107 -9 153 -22v18c0 93 -54 141 -149 141c-59 0 -104 -16 -152 -38l-23 63c57 26 109 43 183 43c98 0 164 -37 190 -111c41 70 113 115 198 115
c152 0 241 -122 241 -273c0 -10 -1 -16 -2 -25h-409c10 -112 90 -175 181 -175c72 0 121 29 163 73l48 -43c-51 -58 -115 -97 -213 -97c-83 0 -159 39 -205 104c-55 -57 -130 -103 -226 -103zM493 287h333c-8 94 -62 176 -164 176c-91 0 -159 -75 -169 -176zM251 51
c76 0 138 38 186 92c-12 30 -19 62 -21 98c-38 10 -87 21 -144 21c-94 0 -147 -42 -147 -107v-2c0 -64 57 -102 126 -102z" />
    <glyph glyph-name="Agrave" unicode="&#xc0;" horiz-adv-x="790" 
d="M39 0l319 705h74l319 -705h-85l-82 185h-381l-83 -185h-81zM234 257h319l-159 356zM427 772h-64l-115 93l78 36z" />
    <glyph glyph-name="agrave" unicode="&#xe0;" horiz-adv-x="579" 
d="M240 -11c-96 0 -193 55 -193 161v2c0 109 90 167 221 167c66 0 113 -9 159 -22v18c0 93 -57 141 -154 141c-61 0 -109 -16 -157 -38l-23 63c57 26 113 43 188 43c73 0 129 -19 167 -57c35 -35 53 -85 53 -151v-316h-74v78c-36 -47 -96 -89 -187 -89zM255 50
c95 0 173 58 173 140v50c-38 11 -89 22 -152 22c-97 0 -151 -42 -151 -107v-2c0 -65 60 -103 130 -103zM261 595l-114 108l80 37l94 -145h-60z" />
    <glyph glyph-name="agrave.alt" horiz-adv-x="664" 
d="M303 -11c-124 0 -247 98 -247 268v2c0 169 123 269 247 269c96 0 158 -52 198 -110v99h77v-517h-77v104c-42 -62 -103 -115 -198 -115zM317 58c96 0 187 81 187 200v2c0 119 -91 199 -187 199c-100 0 -182 -74 -182 -199v-2c0 -122 85 -200 182 -200zM306 595l-114 108
l80 37l94 -145h-60z" />
    <glyph glyph-name="Amacron" unicode="&#x100;" horiz-adv-x="790" 
d="M39 0l319 705h74l319 -705h-85l-82 185h-381l-83 -185h-81zM234 257h319l-159 356zM231 793v64h328v-64h-328z" />
    <glyph glyph-name="amacron" unicode="&#x101;" horiz-adv-x="579" 
d="M240 -11c-96 0 -193 55 -193 161v2c0 109 90 167 221 167c66 0 113 -9 159 -22v18c0 93 -57 141 -154 141c-61 0 -109 -16 -157 -38l-23 63c57 26 113 43 188 43c73 0 129 -19 167 -57c35 -35 53 -85 53 -151v-316h-74v78c-36 -47 -96 -89 -187 -89zM255 50
c95 0 173 58 173 140v50c-38 11 -89 22 -152 22c-97 0 -151 -42 -151 -107v-2c0 -65 60 -103 130 -103zM133 615v63h312v-63h-312z" />
    <glyph glyph-name="amacron.alt" horiz-adv-x="664" 
d="M303 -11c-124 0 -247 98 -247 268v2c0 169 123 269 247 269c96 0 158 -52 198 -110v99h77v-517h-77v104c-42 -62 -103 -115 -198 -115zM317 58c96 0 187 81 187 200v2c0 119 -91 199 -187 199c-100 0 -182 -74 -182 -199v-2c0 -122 85 -200 182 -200zM179 615v63h312v-63
h-312z" />
    <glyph glyph-name="Aogonek" unicode="&#x104;" horiz-adv-x="790" 
d="M759 -120v-44c-4 -1 -8 -1 -12 -1c-84 2 -128 35 -128 81c0 32 17 56 47 84l-82 185h-381l-83 -185h-81l319 705h74l319 -705h-18c-33 -28 -48 -48 -48 -73c0 -28 22 -44 74 -47zM234 257h319l-159 356z" />
    <glyph glyph-name="aogonek" unicode="&#x105;" horiz-adv-x="579" 
d="M513 -120v-44c-4 -1 -8 -1 -12 -1c-84 2 -128 35 -128 81c0 34 19 60 54 90v72c-36 -47 -96 -89 -187 -89c-96 0 -193 55 -193 161v2c0 109 90 167 221 167c66 0 113 -9 159 -22v18c0 93 -57 141 -154 141c-61 0 -109 -16 -157 -38l-23 63c57 26 113 43 188 43
c73 0 129 -19 167 -57c35 -35 53 -85 53 -151v-316h-14c-33 -28 -48 -48 -48 -73c0 -28 22 -44 74 -47zM255 50c95 0 173 58 173 140v50c-38 11 -89 22 -152 22c-97 0 -151 -42 -151 -107v-2c0 -65 60 -103 130 -103z" />
    <glyph glyph-name="aogonek.alt" horiz-adv-x="664" 
d="M591 -120v-44c-4 -1 -8 -1 -12 -1c-84 2 -128 35 -128 81c0 33 18 58 50 87v101c-42 -62 -103 -115 -198 -115c-124 0 -247 98 -247 268v2c0 169 123 269 247 269c96 0 158 -52 198 -110v99h77v-517h-13c-33 -28 -48 -48 -48 -73c0 -28 22 -44 74 -47zM317 58
c96 0 187 81 187 200v2c0 119 -91 199 -187 199c-100 0 -182 -74 -182 -199v-2c0 -122 85 -200 182 -200z" />
    <glyph glyph-name="Aring" unicode="&#xc5;" horiz-adv-x="790" 
d="M39 0l300 664c-33 17 -55 48 -55 86c0 57 51 99 111 99s111 -42 111 -99c0 -38 -23 -69 -55 -86l300 -664h-85l-82 185h-381l-83 -185h-81zM234 257h319l-159 356zM395 689c38 0 67 26 67 61s-29 61 -67 61s-67 -26 -67 -61s29 -61 67 -61z" />
    <glyph glyph-name="aring" unicode="&#xe5;" horiz-adv-x="579" 
d="M240 -11c-96 0 -193 55 -193 161v2c0 109 90 167 221 167c66 0 113 -9 159 -22v18c0 93 -57 141 -154 141c-61 0 -109 -16 -157 -38l-23 63c57 26 113 43 188 43c73 0 129 -19 167 -57c35 -35 53 -85 53 -151v-316h-74v78c-36 -47 -96 -89 -187 -89zM255 50
c95 0 173 58 173 140v50c-38 11 -89 22 -152 22c-97 0 -151 -42 -151 -107v-2c0 -65 60 -103 130 -103zM289 593c-60 0 -109 47 -109 105c0 57 49 104 109 104s109 -47 109 -104c0 -58 -49 -105 -109 -105zM289 629c37 0 69 31 69 69c0 37 -32 69 -69 69s-69 -32 -69 -69
c0 -38 32 -69 69 -69z" />
    <glyph glyph-name="aring.alt" horiz-adv-x="664" 
d="M335 593c-60 0 -109 47 -109 105c0 57 49 104 109 104s109 -47 109 -104c0 -58 -49 -105 -109 -105zM335 629c37 0 69 31 69 69c0 37 -32 69 -69 69s-69 -32 -69 -69c0 -38 32 -69 69 -69zM303 -11c-124 0 -247 98 -247 268v2c0 169 123 269 247 269
c96 0 158 -52 198 -110v99h77v-517h-77v104c-42 -62 -103 -115 -198 -115zM317 58c96 0 187 81 187 200v2c0 119 -91 199 -187 199c-100 0 -182 -74 -182 -199v-2c0 -122 85 -200 182 -200z" />
    <glyph glyph-name="aring.alt2" horiz-adv-x="579" 
d="M240 -11c-96 0 -193 55 -193 161v2c0 109 90 167 221 167c66 0 113 -9 159 -22v18c0 93 -57 141 -154 141c-61 0 -109 -16 -157 -38l-23 63c39 17 78 32 124 39c-22 18 -36 43 -36 74c0 57 49 104 109 104s109 -47 109 -104c0 -33 -17 -61 -41 -79c36 -8 66 -25 90 -48
c35 -35 53 -85 53 -151v-316h-74v78c-36 -47 -96 -89 -187 -89zM255 50c95 0 173 58 173 140v50c-38 11 -89 22 -152 22c-97 0 -151 -42 -151 -107v-2c0 -65 60 -103 130 -103zM221 594c0 -38 32 -69 69 -69s69 31 69 69c0 37 -32 69 -69 69s-69 -32 -69 -69z" />
    <glyph glyph-name="Aringacute" unicode="&#x1fa;" horiz-adv-x="790" 
d="M39 0l300 664c-33 17 -55 48 -55 86c0 57 51 99 111 99s111 -42 111 -99c0 -38 -23 -69 -55 -86l300 -664h-85l-82 185h-381l-83 -185h-81zM234 257h319l-159 356zM395 689c38 0 67 26 67 61s-29 61 -67 61s-67 -26 -67 -61s29 -61 67 -61zM359 879l102 115l77 -35
l-115 -80h-64z" />
    <glyph glyph-name="aringacute" unicode="&#x1fb;" horiz-adv-x="579" 
d="M257 831l98 126l77 -37l-112 -89h-63zM240 -11c-96 0 -193 55 -193 161v2c0 109 90 167 221 167c66 0 113 -9 159 -22v18c0 93 -57 141 -154 141c-61 0 -109 -16 -157 -38l-23 63c57 26 113 43 188 43c73 0 129 -19 167 -57c35 -35 53 -85 53 -151v-316h-74v78
c-36 -47 -96 -89 -187 -89zM255 50c95 0 173 58 173 140v50c-38 11 -89 22 -152 22c-97 0 -151 -42 -151 -107v-2c0 -65 60 -103 130 -103zM289 593c-60 0 -109 47 -109 105c0 57 49 104 109 104s109 -47 109 -104c0 -58 -49 -105 -109 -105zM289 629c37 0 69 31 69 69
c0 37 -32 69 -69 69s-69 -32 -69 -69c0 -38 32 -69 69 -69z" />
    <glyph glyph-name="aringacute.alt" horiz-adv-x="664" 
d="M303 831l97 126l78 -37l-113 -89h-62zM335 593c-60 0 -109 47 -109 105c0 57 49 104 109 104s109 -47 109 -104c0 -58 -49 -105 -109 -105zM335 629c37 0 69 31 69 69c0 37 -32 69 -69 69s-69 -32 -69 -69c0 -38 32 -69 69 -69zM303 -11c-124 0 -247 98 -247 268v2
c0 169 123 269 247 269c96 0 158 -52 198 -110v99h77v-517h-77v104c-42 -62 -103 -115 -198 -115zM317 58c96 0 187 81 187 200v2c0 119 -91 199 -187 199c-100 0 -182 -74 -182 -199v-2c0 -122 85 -200 182 -200z" />
    <glyph glyph-name="aringacute.alt2" horiz-adv-x="579" 
d="M257 734l98 126l77 -37l-112 -89h-63zM240 -11c-96 0 -193 55 -193 161v2c0 109 90 167 221 167c66 0 113 -9 159 -22v18c0 93 -57 141 -154 141c-61 0 -109 -16 -157 -38l-23 63c39 17 78 32 124 39c-22 18 -36 43 -36 74c0 57 49 104 109 104s109 -47 109 -104
c0 -33 -17 -61 -41 -79c36 -8 66 -25 90 -48c35 -35 53 -85 53 -151v-316h-74v78c-36 -47 -96 -89 -187 -89zM255 50c95 0 173 58 173 140v50c-38 11 -89 22 -152 22c-97 0 -151 -42 -151 -107v-2c0 -65 60 -103 130 -103zM221 594c0 -38 32 -69 69 -69s69 31 69 69
c0 37 -32 69 -69 69s-69 -32 -69 -69z" />
    <glyph glyph-name="Atilde" unicode="&#xc3;" horiz-adv-x="790" 
d="M39 0l319 705h74l319 -705h-85l-82 185h-381l-83 -185h-81zM234 257h319l-159 356zM468 772c-23 0 -50 11 -77 22c-20 8 -41 17 -57 17c-26 0 -37 -14 -52 -48l-49 14c20 69 47 102 94 102c24 0 50 -11 77 -22c21 -8 42 -17 57 -17c26 0 37 14 52 47l49 -14
c-20 -69 -47 -101 -94 -101z" />
    <glyph glyph-name="atilde" unicode="&#xe3;" horiz-adv-x="579" 
d="M240 -11c-96 0 -193 55 -193 161v2c0 109 90 167 221 167c66 0 113 -9 159 -22v18c0 93 -57 141 -154 141c-61 0 -109 -16 -157 -38l-23 63c57 26 113 43 188 43c73 0 129 -19 167 -57c35 -35 53 -85 53 -151v-316h-74v78c-36 -47 -96 -89 -187 -89zM255 50
c95 0 173 58 173 140v50c-38 11 -89 22 -152 22c-97 0 -151 -42 -151 -107v-2c0 -65 60 -103 130 -103zM362 595c-23 0 -47 10 -72 21c-22 9 -45 19 -62 19c-26 0 -37 -13 -52 -49l-47 13c20 75 47 105 95 105c23 0 47 -10 72 -20c22 -10 45 -20 62 -20c26 0 37 13 52 49
l47 -13c-20 -75 -47 -105 -95 -105z" />
    <glyph glyph-name="atilde.alt" horiz-adv-x="664" 
d="M303 -11c-124 0 -247 98 -247 268v2c0 169 123 269 247 269c96 0 158 -52 198 -110v99h77v-517h-77v104c-42 -62 -103 -115 -198 -115zM317 58c96 0 187 81 187 200v2c0 119 -91 199 -187 199c-100 0 -182 -74 -182 -199v-2c0 -122 85 -200 182 -200zM408 595
c-23 0 -47 10 -72 21c-22 9 -45 19 -62 19c-26 0 -37 -13 -52 -49l-47 13c20 75 47 105 95 105c23 0 47 -10 72 -20c22 -10 45 -20 62 -20c26 0 37 13 52 49l47 -13c-20 -75 -47 -105 -95 -105z" />
    <glyph glyph-name="Cacute" unicode="&#x106;" horiz-adv-x="738" 
d="M419 -12c-202 0 -351 159 -351 360v2c0 198 148 362 354 362c127 0 203 -45 273 -111l-54 -58c-59 56 -125 96 -220 96c-155 0 -271 -126 -271 -287v-2c0 -162 117 -289 271 -289c96 0 159 37 226 101l52 -51c-73 -74 -153 -123 -280 -123zM382 772l100 129l79 -36
l-115 -93h-64z" />
    <glyph glyph-name="cacute" unicode="&#x107;" horiz-adv-x="571" 
d="M282 595l94 145l80 -37l-114 -108h-60zM319 -12c-151 0 -265 123 -265 268v2c0 146 114 270 265 270c98 0 159 -41 207 -92l-51 -54c-41 43 -87 78 -157 78c-105 0 -185 -89 -185 -200v-2c0 -112 82 -201 190 -201c66 0 117 33 158 77l49 -46
c-52 -58 -114 -100 -211 -100z" />
    <glyph glyph-name="Ccaron" unicode="&#x10c;" horiz-adv-x="738" 
d="M419 -12c-202 0 -351 159 -351 360v2c0 198 148 362 354 362c127 0 203 -45 273 -111l-54 -58c-59 56 -125 96 -220 96c-155 0 -271 -126 -271 -287v-2c0 -162 117 -289 271 -289c96 0 159 37 226 101l52 -51c-73 -74 -153 -123 -280 -123zM560 890l-110 -118h-72
l-110 118h72l75 -60l75 60h70z" />
    <glyph glyph-name="ccaron" unicode="&#x10d;" horiz-adv-x="571" 
d="M454 726l-106 -131h-68l-106 131h66l75 -67l75 67h64zM319 -12c-151 0 -265 123 -265 268v2c0 146 114 270 265 270c98 0 159 -41 207 -92l-51 -54c-41 43 -87 78 -157 78c-105 0 -185 -89 -185 -200v-2c0 -112 82 -201 190 -201c66 0 117 33 158 77l49 -46
c-52 -58 -114 -100 -211 -100z" />
    <glyph glyph-name="Ccedilla" unicode="&#xc7;" horiz-adv-x="738" 
d="M369 -155l-75 34l77 112c-177 23 -303 172 -303 357v2c0 198 148 362 354 362c127 0 203 -45 273 -111l-54 -58c-59 56 -125 96 -220 96c-155 0 -271 -126 -271 -287v-2c0 -162 117 -289 271 -289c96 0 159 37 226 101l52 -51c-70 -71 -146 -118 -264 -122z" />
    <glyph glyph-name="ccedilla" unicode="&#xe7;" horiz-adv-x="571" 
d="M268 -155l-75 34l78 114c-127 22 -217 134 -217 263v2c0 146 114 270 265 270c98 0 159 -41 207 -92l-51 -54c-41 43 -87 78 -157 78c-105 0 -185 -89 -185 -200v-2c0 -112 82 -201 190 -201c66 0 117 33 158 77l49 -46c-49 -55 -108 -95 -196 -99z" />
    <glyph glyph-name="Cdotaccent" unicode="&#x10a;" horiz-adv-x="738" 
d="M366 772v90h96v-90h-96zM419 -12c-202 0 -351 159 -351 360v2c0 198 148 362 354 362c127 0 203 -45 273 -111l-54 -58c-59 56 -125 96 -220 96c-155 0 -271 -126 -271 -287v-2c0 -162 117 -289 271 -289c96 0 159 37 226 101l52 -51c-73 -74 -153 -123 -280 -123z" />
    <glyph glyph-name="cdotaccent" unicode="&#x10b;" horiz-adv-x="571" 
d="M319 -12c-151 0 -265 123 -265 268v2c0 146 114 270 265 270c98 0 159 -41 207 -92l-51 -54c-41 43 -87 78 -157 78c-105 0 -185 -89 -185 -200v-2c0 -112 82 -201 190 -201c66 0 117 33 158 77l49 -46c-52 -58 -114 -100 -211 -100zM267 595v96h94v-96h-94z" />
    <glyph glyph-name="Dcaron" unicode="&#x10e;" horiz-adv-x="782" 
d="M99 0v700h243c220 0 372 -151 372 -348v-2c0 -197 -152 -350 -372 -350h-243zM342 627h-164v-554h164c177 0 290 120 290 275v2c0 155 -113 277 -290 277zM521 880l-110 -118h-72l-110 118h72l75 -60l75 60h70z" />
    <glyph glyph-name="dcaron" unicode="&#x10f;" horiz-adv-x="664" 
d="M642 584l15 165h74v-3l-52 -162h-37zM303 -11c-124 0 -247 98 -247 268v2c0 169 123 269 247 269c96 0 158 -52 198 -110v312h77v-730h-77v104c-42 -62 -103 -115 -198 -115zM317 58c96 0 187 81 187 200v2c0 119 -91 199 -187 199c-100 0 -182 -74 -182 -199v-2
c0 -122 85 -200 182 -200z" />
    <glyph glyph-name="Dcroat" unicode="&#x110;" horiz-adv-x="812" 
d="M129 0v316h-75v72h75v312h243c220 0 372 -151 372 -348v-2c0 -197 -152 -350 -372 -350h-243zM418 316h-210v-243h164c177 0 290 120 290 275v2c0 155 -113 277 -290 277h-164v-239h210v-72z" />
    <glyph glyph-name="dcroat" unicode="&#x111;" horiz-adv-x="664" 
d="M324 611v56h177v63h77v-63h69v-56h-69v-611h-77v104c-42 -62 -103 -115 -198 -115c-124 0 -247 98 -247 268v2c0 169 123 269 247 269c96 0 158 -52 198 -110v193h-177zM317 58c96 0 187 81 187 200v2c0 119 -91 199 -187 199c-100 0 -182 -74 -182 -199v-2
c0 -122 85 -200 182 -200z" />
    <glyph glyph-name="Eacute" unicode="&#xc9;" horiz-adv-x="670" 
d="M321 762l100 129l79 -36l-115 -93h-64zM99 0v700h506v-72h-427v-239h382v-72h-382v-245h432v-72h-511z" />
    <glyph glyph-name="eacute" unicode="&#xe9;" horiz-adv-x="592" 
d="M270 595l94 145l80 -37l-114 -108h-60zM312 -12c-142 0 -258 109 -258 269v2c0 149 105 269 248 269c153 0 241 -122 241 -273c0 -10 0 -16 -1 -25h-410c11 -112 90 -175 182 -175c71 0 121 29 163 73l48 -43c-52 -58 -115 -97 -213 -97zM132 287h333
c-8 94 -62 176 -165 176c-90 0 -158 -75 -168 -176z" />
    <glyph glyph-name="Ebreve" unicode="&#x114;" horiz-adv-x="670" 
d="M353 760c-83 0 -142 42 -148 114h60c11 -32 39 -52 88 -52s77 20 88 52h60c-6 -72 -65 -114 -148 -114zM99 0v700h506v-72h-427v-239h382v-72h-382v-245h432v-72h-511z" />
    <glyph glyph-name="ebreve" unicode="&#x115;" horiz-adv-x="592" 
d="M312 -12c-142 0 -258 109 -258 269v2c0 149 105 269 248 269c153 0 241 -122 241 -273c0 -10 0 -16 -1 -25h-410c11 -112 90 -175 182 -175c71 0 121 29 163 73l48 -43c-52 -58 -115 -97 -213 -97zM132 287h333c-8 94 -62 176 -165 176c-90 0 -158 -75 -168 -176z
M301 593c-83 0 -142 46 -148 125h56c12 -37 41 -63 92 -63s80 26 92 63h56c-6 -79 -65 -125 -148 -125z" />
    <glyph glyph-name="Ecaron" unicode="&#x11a;" horiz-adv-x="670" 
d="M499 880l-110 -118h-72l-110 118h72l75 -60l75 60h70zM99 0v700h506v-72h-427v-239h382v-72h-382v-245h432v-72h-511z" />
    <glyph glyph-name="ecaron" unicode="&#x11b;" horiz-adv-x="592" 
d="M441 726l-106 -131h-68l-106 131h66l75 -67l75 67h64zM312 -12c-142 0 -258 109 -258 269v2c0 149 105 269 248 269c153 0 241 -122 241 -273c0 -10 0 -16 -1 -25h-410c11 -112 90 -175 182 -175c71 0 121 29 163 73l48 -43c-52 -58 -115 -97 -213 -97zM132 287h333
c-8 94 -62 176 -165 176c-90 0 -158 -75 -168 -176z" />
    <glyph glyph-name="Ecircumflex" unicode="&#xca;" horiz-adv-x="670" 
d="M99 0v700h506v-72h-427v-239h382v-72h-382v-245h432v-72h-511zM207 762l110 118h72l110 -118h-72l-75 60l-75 -60h-70z" />
    <glyph glyph-name="ecircumflex" unicode="&#xea;" horiz-adv-x="592" 
d="M161 595l106 131h68l106 -131h-66l-75 67l-75 -67h-64zM312 -12c-142 0 -258 109 -258 269v2c0 149 105 269 248 269c153 0 241 -122 241 -273c0 -10 0 -16 -1 -25h-410c11 -112 90 -175 182 -175c71 0 121 29 163 73l48 -43c-52 -58 -115 -97 -213 -97zM132 287h333
c-8 94 -62 176 -165 176c-90 0 -158 -75 -168 -176z" />
    <glyph glyph-name="Edieresis" unicode="&#xcb;" horiz-adv-x="670" 
d="M401 762v90h93v-90h-93zM214 762v90h93v-90h-93zM99 0v700h506v-72h-427v-239h382v-72h-382v-245h432v-72h-511z" />
    <glyph glyph-name="edieresis" unicode="&#xeb;" horiz-adv-x="592" 
d="M344 595v95h89v-95h-89zM169 595v95h89v-95h-89zM312 -12c-142 0 -258 109 -258 269v2c0 149 105 269 248 269c153 0 241 -122 241 -273c0 -10 0 -16 -1 -25h-410c11 -112 90 -175 182 -175c71 0 121 29 163 73l48 -43c-52 -58 -115 -97 -213 -97zM132 287h333
c-8 94 -62 176 -165 176c-90 0 -158 -75 -168 -176z" />
    <glyph glyph-name="Edotaccent" unicode="&#x116;" horiz-adv-x="670" 
d="M305 762v90h96v-90h-96zM99 0v700h506v-72h-427v-239h382v-72h-382v-245h432v-72h-511z" />
    <glyph glyph-name="edotaccent" unicode="&#x117;" horiz-adv-x="592" 
d="M312 -12c-142 0 -258 109 -258 269v2c0 149 105 269 248 269c153 0 241 -122 241 -273c0 -10 0 -16 -1 -25h-410c11 -112 90 -175 182 -175c71 0 121 29 163 73l48 -43c-52 -58 -115 -97 -213 -97zM132 287h333c-8 94 -62 176 -165 176c-90 0 -158 -75 -168 -176z
M254 595v96h94v-96h-94z" />
    <glyph glyph-name="Egrave" unicode="&#xc8;" horiz-adv-x="670" 
d="M386 762h-64l-115 93l78 36zM99 0v700h506v-72h-427v-239h382v-72h-382v-245h432v-72h-511z" />
    <glyph glyph-name="egrave" unicode="&#xe8;" horiz-adv-x="592" 
d="M312 -12c-142 0 -258 109 -258 269v2c0 149 105 269 248 269c153 0 241 -122 241 -273c0 -10 0 -16 -1 -25h-410c11 -112 90 -175 182 -175c71 0 121 29 163 73l48 -43c-52 -58 -115 -97 -213 -97zM132 287h333c-8 94 -62 176 -165 176c-90 0 -158 -75 -168 -176z
M272 595l-114 108l80 37l94 -145h-60z" />
    <glyph glyph-name="Emacron" unicode="&#x112;" horiz-adv-x="670" 
d="M189 783v64h328v-64h-328zM99 0v700h506v-72h-427v-239h382v-72h-382v-245h432v-72h-511z" />
    <glyph glyph-name="emacron" unicode="&#x113;" horiz-adv-x="592" 
d="M312 -12c-142 0 -258 109 -258 269v2c0 149 105 269 248 269c153 0 241 -122 241 -273c0 -10 0 -16 -1 -25h-410c11 -112 90 -175 182 -175c71 0 121 29 163 73l48 -43c-52 -58 -115 -97 -213 -97zM132 287h333c-8 94 -62 176 -165 176c-90 0 -158 -75 -168 -176z
M145 615v63h312v-63h-312z" />
    <glyph glyph-name="Eogonek" unicode="&#x118;" horiz-adv-x="670" 
d="M99 0v700h506v-72h-427v-239h382v-72h-382v-245h432v-72h-28c-33 -28 -48 -48 -48 -73c0 -28 22 -44 74 -47v-44c-4 -1 -8 -1 -12 -1c-84 2 -128 35 -128 81c0 32 17 56 47 84h-416z" />
    <glyph glyph-name="eogonek" unicode="&#x119;" horiz-adv-x="592" 
d="M132 287h333c-8 94 -62 176 -165 176c-90 0 -158 -75 -168 -176zM477 128l48 -43c-18 -20 -31 -32 -54 -51c-54 -46 -69 -73 -69 -101c0 -34 22 -49 75 -53v-44c-4 -1 -9 -1 -12 -1c-85 2 -128 34 -128 84c0 27 12 50 36 75c-18 -4 -40 -6 -61 -6
c-142 0 -258 109 -258 269v2c0 149 105 269 248 269c153 0 241 -122 241 -273c0 -10 0 -16 -1 -25h-410c11 -112 90 -175 182 -175c71 0 121 29 163 73z" />
    <glyph glyph-name="Eth" unicode="&#xd0;" horiz-adv-x="812" 
d="M129 0v316h-75v72h75v312h243c220 0 372 -151 372 -348v-2c0 -197 -152 -350 -372 -350h-243zM418 316h-210v-243h164c177 0 290 120 290 275v2c0 155 -113 277 -290 277h-164v-239h210v-72z" />
    <glyph glyph-name="eth" unicode="&#xf0;" horiz-adv-x="646" 
d="M493 685l-86 -36c105 -102 184 -222 184 -365v-2c0 -171 -108 -294 -272 -294c-150 0 -265 122 -265 272v2c0 151 116 254 244 254c80 0 136 -33 179 -72c-28 57 -77 118 -139 176l-115 -47l-23 47l95 39c-28 24 -58 48 -89 71h111l48 -41l105 44zM324 57
c111 0 188 87 188 199v2c0 109 -80 193 -196 193c-111 0 -183 -84 -183 -193v-2c0 -109 82 -199 191 -199z" />
    <glyph glyph-name="Gbreve" unicode="&#x11e;" horiz-adv-x="784" 
d="M412 770c-83 0 -142 42 -148 114h60c11 -32 39 -52 88 -52s77 20 88 52h60c-6 -72 -65 -114 -148 -114zM424 -12c-220 0 -356 160 -356 360v2c0 192 141 362 351 362c118 0 191 -34 261 -93l-51 -60c-54 47 -114 80 -213 80c-155 0 -266 -131 -266 -287v-2
c0 -167 107 -291 277 -291c80 0 154 31 202 70v174h-213v71h289v-279c-65 -58 -163 -107 -281 -107z" />
    <glyph glyph-name="gbreve" unicode="&#x11f;" horiz-adv-x="664" 
d="M315 -162c-86 0 -166 24 -235 72l35 60c59 -43 125 -66 199 -66c114 0 188 63 188 184v61c-45 -60 -108 -109 -203 -109c-124 0 -243 93 -243 242v2c0 151 120 244 243 244c97 0 160 -48 202 -104v93h77v-427c0 -80 -24 -141 -66 -183c-46 -46 -115 -69 -197 -69z
M314 108c98 0 190 71 190 175v2c0 106 -92 175 -190 175s-179 -68 -179 -174v-2c0 -104 83 -176 179 -176zM335 593c-83 0 -142 46 -148 125h56c12 -37 41 -63 92 -63s80 26 92 63h56c-6 -79 -65 -125 -148 -125z" />
    <glyph glyph-name="Gcommaaccent" unicode="&#x122;" horiz-adv-x="784" 
d="M352 -244l-7 30c45 8 64 26 61 60h-40v83h90v-71c0 -63 -35 -95 -104 -102zM424 -12c-220 0 -356 160 -356 360v2c0 192 141 362 351 362c118 0 191 -34 261 -93l-51 -60c-54 47 -114 80 -213 80c-155 0 -266 -131 -266 -287v-2c0 -167 107 -291 277 -291
c80 0 154 31 202 70v174h-213v71h289v-279c-65 -58 -163 -107 -281 -107z" />
    <glyph glyph-name="gcommaaccent" unicode="&#x123;" horiz-adv-x="664" 
d="M393 768l7 -30c-45 -8 -64 -26 -61 -60h40v-83h-90v71c0 63 35 95 104 102zM315 -162c-86 0 -166 24 -235 72l35 60c59 -43 125 -66 199 -66c114 0 188 63 188 184v61c-45 -60 -108 -109 -203 -109c-124 0 -243 93 -243 242v2c0 151 120 244 243 244
c97 0 160 -48 202 -104v93h77v-427c0 -80 -24 -141 -66 -183c-46 -46 -115 -69 -197 -69zM314 108c98 0 190 71 190 175v2c0 106 -92 175 -190 175s-179 -68 -179 -174v-2c0 -104 83 -176 179 -176z" />
    <glyph glyph-name="Gdotaccent" unicode="&#x120;" horiz-adv-x="784" 
d="M364 772v90h96v-90h-96zM424 -12c-220 0 -356 160 -356 360v2c0 192 141 362 351 362c118 0 191 -34 261 -93l-51 -60c-54 47 -114 80 -213 80c-155 0 -266 -131 -266 -287v-2c0 -167 107 -291 277 -291c80 0 154 31 202 70v174h-213v71h289v-279
c-65 -58 -163 -107 -281 -107z" />
    <glyph glyph-name="gdotaccent" unicode="&#x121;" horiz-adv-x="664" 
d="M315 -162c-86 0 -166 24 -235 72l35 60c59 -43 125 -66 199 -66c114 0 188 63 188 184v61c-45 -60 -108 -109 -203 -109c-124 0 -243 93 -243 242v2c0 151 120 244 243 244c97 0 160 -48 202 -104v93h77v-427c0 -80 -24 -141 -66 -183c-46 -46 -115 -69 -197 -69z
M314 108c98 0 190 71 190 175v2c0 106 -92 175 -190 175s-179 -68 -179 -174v-2c0 -104 83 -176 179 -176zM288 595v96h94v-96h-94z" />
    <glyph glyph-name="Hbar" unicode="&#x126;" horiz-adv-x="804" 
d="M47 510v61h74v129h79v-129h404v129h79v-129h74v-61h-74v-510h-79v312h-404v-312h-79v510h-74zM200 385h404v125h-404v-125z" />
    <glyph glyph-name="hbar" unicode="&#x127;" horiz-adv-x="616" 
d="M340 611h-177v-184c34 56 88 101 177 101c125 0 198 -84 198 -207v-321h-77v302c0 96 -52 156 -143 156c-89 0 -155 -65 -155 -162v-296h-77v611h-69v56h69v63h77v-63h177v-56z" />
    <glyph glyph-name="Iacute" unicode="&#xcd;" horiz-adv-x="291" 
d="M106 0v700h79v-700h-79zM114 762l100 129l79 -36l-115 -93h-64z" />
    <glyph glyph-name="iacute" unicode="&#xed;" horiz-adv-x="263" 
d="M101 595l94 145l80 -37l-114 -108h-60zM93 0v517h77v-517h-77z" />
    <glyph glyph-name="Ibreve" unicode="&#x12c;" horiz-adv-x="291" 
d="M106 0v700h79v-700h-79zM146 760c-83 0 -142 42 -148 114h60c11 -32 39 -52 88 -52s77 20 88 52h60c-6 -72 -65 -114 -148 -114z" />
    <glyph glyph-name="ibreve" unicode="&#x12d;" horiz-adv-x="263" 
d="M93 0v517h77v-517h-77zM132 593c-83 0 -142 46 -148 125h56c12 -37 41 -63 92 -63s80 26 92 63h56c-6 -79 -65 -125 -148 -125z" />
    <glyph glyph-name="Icircumflex" unicode="&#xce;" horiz-adv-x="291" 
d="M106 0v700h79v-700h-79zM0 762l110 118h72l110 -118h-72l-75 60l-75 -60h-70z" />
    <glyph glyph-name="icircumflex" unicode="&#xee;" horiz-adv-x="263" 
d="M-8 595l106 131h68l106 -131h-66l-75 67l-75 -67h-64zM93 0v517h77v-517h-77z" />
    <glyph glyph-name="Idieresis" unicode="&#xcf;" horiz-adv-x="291" 
d="M106 0v700h79v-700h-79zM194 762v90h93v-90h-93zM7 762v90h93v-90h-93z" />
    <glyph glyph-name="idieresis" unicode="&#xef;" horiz-adv-x="263" 
d="M175 595v95h89v-95h-89zM0 595v95h89v-95h-89zM93 0v517h77v-517h-77z" />
    <glyph glyph-name="Idotaccent" unicode="&#x130;" horiz-adv-x="291" 
d="M106 0v700h79v-700h-79zM98 762v90h96v-90h-96z" />
    <glyph glyph-name="dotlessi" unicode="&#x131;" horiz-adv-x="263" 
d="M93 0v517h77v-517h-77z" />
    <glyph glyph-name="Igrave" unicode="&#xcc;" horiz-adv-x="291" 
d="M106 0v700h79v-700h-79zM178 762h-64l-115 93l78 36z" />
    <glyph glyph-name="igrave" unicode="&#xec;" horiz-adv-x="263" 
d="M93 0v517h77v-517h-77zM103 595l-114 108l80 37l94 -145h-60z" />
    <glyph glyph-name="Imacron" unicode="&#x12a;" horiz-adv-x="291" 
d="M106 0v700h79v-700h-79zM-18 783v64h328v-64h-328z" />
    <glyph glyph-name="imacron" unicode="&#x12b;" horiz-adv-x="263" 
d="M93 0v517h77v-517h-77zM-24 615v63h312v-63h-312z" />
    <glyph glyph-name="Iogonek" unicode="&#x12e;" horiz-adv-x="291" 
d="M106 0v700h79v-700h-10c-33 -28 -48 -48 -48 -73c0 -28 22 -44 74 -47v-44c-4 -1 -8 -1 -12 -1c-84 2 -128 35 -128 81c0 32 17 56 47 84h-2z" />
    <glyph glyph-name="iogonek" unicode="&#x12f;" horiz-adv-x="263" 
d="M93 0v517h77v-517h-9c-33 -28 -48 -48 -48 -73c0 -28 22 -44 74 -47v-44c-4 -1 -8 -1 -12 -1c-84 2 -128 35 -128 81c0 32 17 56 47 84h-1zM88 630v85h88v-85h-88z" />
    <glyph glyph-name="Kcommaaccent" unicode="&#x136;" horiz-adv-x="719" 
d="M303 -238l-7 30c45 8 64 26 61 60h-40v83h90v-71c0 -63 -35 -95 -104 -102zM99 0v700h79v-418l402 418h102l-300 -306l313 -394h-99l-269 339l-149 -151v-188h-79z" />
    <glyph glyph-name="kcommaaccent" unicode="&#x137;" horiz-adv-x="569" 
d="M239 -243l-7 30c45 8 64 26 61 60h-40v83h90v-71c0 -63 -35 -95 -104 -102zM86 0v730h77v-504l279 291h96l-217 -222l224 -295h-92l-185 241l-105 -106v-135h-77z" />
    <glyph glyph-name="Lacute" unicode="&#x139;" horiz-adv-x="619" 
d="M118 762l100 129l79 -36l-115 -93h-64zM99 0v700h79v-627h394v-73h-473z" />
    <glyph glyph-name="lacute" unicode="&#x13a;" horiz-adv-x="263" 
d="M101 782l100 129l79 -36l-115 -93h-64zM93 0v730h77v-730h-77z" />
    <glyph glyph-name="Lcaron" unicode="&#x13d;" horiz-adv-x="619" 
d="M270 536l15 165h74v-3l-52 -162h-37zM99 0v700h79v-627h394v-73h-473z" />
    <glyph glyph-name="lcaron" unicode="&#x13e;" horiz-adv-x="263" 
d="M234 584l15 165h74v-3l-52 -162h-37zM93 0v730h77v-730h-77z" />
    <glyph glyph-name="Lcommaaccent" unicode="&#x13b;" horiz-adv-x="619" 
d="M272 -243l-7 30c45 8 64 26 61 60h-40v83h90v-71c0 -63 -35 -95 -104 -102zM99 0v700h79v-627h394v-73h-473z" />
    <glyph glyph-name="lcommaaccent" unicode="&#x13c;" horiz-adv-x="263" 
d="M72 -243l-7 30c45 8 64 26 61 60h-40v83h90v-71c0 -63 -35 -95 -104 -102zM93 0v730h77v-730h-77z" />
    <glyph glyph-name="Ldot" unicode="&#x13f;" horiz-adv-x="619" 
d="M418 320v96h92v-96h-92zM99 0v700h79v-627h394v-73h-473z" />
    <glyph glyph-name="ldot" unicode="&#x140;" horiz-adv-x="331" 
d="M256 323v92h85v-92h-85zM93 0v730h77v-730h-77z" />
    <glyph glyph-name="Lslash" unicode="&#x141;" horiz-adv-x="649" 
d="M385 401l-178 -84v-244h395v-73h-473v281l-75 -34v77l75 35v341h78v-305l178 83v-77z" />
    <glyph glyph-name="lslash" unicode="&#x142;" horiz-adv-x="323" 
d="M276 392l-76 -41v-351h-76v310l-76 -41v78l76 40v343h76v-302l76 41v-77z" />
    <glyph glyph-name="Nacute" unicode="&#x143;" horiz-adv-x="790" 
d="M363 759l100 129l79 -36l-115 -93h-64zM99 0v700h74l441 -561v561h77v-700h-63l-452 574v-574h-77z" />
    <glyph glyph-name="nacute" unicode="&#x144;" horiz-adv-x="616" 
d="M280 595l94 145l80 -37l-114 -108h-60zM86 0v517h77v-90c34 56 88 101 177 101c125 0 198 -84 198 -207v-321h-77v302c0 96 -52 156 -143 156c-89 0 -155 -65 -155 -162v-296h-77z" />
    <glyph glyph-name="Ncaron" unicode="&#x147;" horiz-adv-x="790" 
d="M541 877l-110 -118h-72l-110 118h72l75 -60l75 60h70zM99 0v700h74l441 -561v561h77v-700h-63l-452 574v-574h-77z" />
    <glyph glyph-name="ncaron" unicode="&#x148;" horiz-adv-x="616" 
d="M451 726l-106 -131h-68l-106 131h66l75 -67l75 67h64zM86 0v517h77v-90c34 56 88 101 177 101c125 0 198 -84 198 -207v-321h-77v302c0 96 -52 156 -143 156c-89 0 -155 -65 -155 -162v-296h-77z" />
    <glyph glyph-name="Ncommaaccent" unicode="&#x145;" horiz-adv-x="790" 
d="M335 -238l-7 30c45 8 64 26 61 60h-40v83h90v-71c0 -63 -35 -95 -104 -102zM99 0v700h74l441 -561v561h77v-700h-63l-452 574v-574h-77z" />
    <glyph glyph-name="ncommaaccent" unicode="&#x146;" horiz-adv-x="616" 
d="M251 -243l-7 30c45 8 64 26 61 60h-40v83h90v-71c0 -63 -35 -95 -104 -102zM86 0v517h77v-90c34 56 88 101 177 101c125 0 198 -84 198 -207v-321h-77v302c0 96 -52 156 -143 156c-89 0 -155 -65 -155 -162v-296h-77z" />
    <glyph glyph-name="Ntilde" unicode="&#xd1;" horiz-adv-x="790" 
d="M468 759c-23 0 -50 11 -77 22c-20 8 -41 17 -57 17c-26 0 -37 -14 -52 -48l-49 14c20 69 47 102 94 102c24 0 50 -11 77 -22c21 -8 42 -17 57 -17c26 0 37 14 52 47l49 -14c-20 -69 -47 -101 -94 -101zM99 0v700h74l441 -561v561h77v-700h-63l-452 574v-574h-77z" />
    <glyph glyph-name="ntilde" unicode="&#xf1;" horiz-adv-x="616" 
d="M86 0v517h77v-90c34 56 88 101 177 101c125 0 198 -84 198 -207v-321h-77v302c0 96 -52 156 -143 156c-89 0 -155 -65 -155 -162v-296h-77zM384 595c-23 0 -47 10 -72 21c-22 9 -45 19 -62 19c-26 0 -37 -13 -52 -49l-47 13c20 75 47 105 95 105c23 0 47 -10 72 -20
c22 -10 45 -20 62 -20c26 0 37 13 52 49l47 -13c-20 -75 -47 -105 -95 -105z" />
    <glyph glyph-name="Oacute" unicode="&#xd3;" horiz-adv-x="850" 
d="M393 772l100 129l79 -36l-115 -93h-64zM424 -12c-213 0 -356 167 -356 360v2c0 193 145 362 358 362s356 -167 356 -360v-2c0 -193 -145 -362 -358 -362zM426 61c160 0 274 128 274 287v2c0 159 -116 289 -276 289s-274 -128 -274 -287v-2c0 -159 116 -289 276 -289z" />
    <glyph glyph-name="oacute" unicode="&#xf3;" horiz-adv-x="646" 
d="M292 595l94 145l80 -37l-114 -108h-60zM322 -12c-155 0 -268 122 -268 268v2c0 146 114 270 270 270c155 0 269 -122 269 -268v-2c0 -146 -115 -270 -271 -270zM324 57c112 0 190 90 190 199v2c0 111 -83 202 -192 202c-112 0 -189 -91 -189 -200v-2
c0 -111 82 -201 191 -201z" />
    <glyph glyph-name="Obreve" unicode="&#x14e;" horiz-adv-x="850" 
d="M425 770c-83 0 -142 42 -148 114h60c11 -32 39 -52 88 -52s77 20 88 52h60c-6 -72 -65 -114 -148 -114zM424 -12c-213 0 -356 167 -356 360v2c0 193 145 362 358 362s356 -167 356 -360v-2c0 -193 -145 -362 -358 -362zM426 61c160 0 274 128 274 287v2
c0 159 -116 289 -276 289s-274 -128 -274 -287v-2c0 -159 116 -289 276 -289z" />
    <glyph glyph-name="obreve" unicode="&#x14f;" horiz-adv-x="646" 
d="M322 -12c-155 0 -268 122 -268 268v2c0 146 114 270 270 270c155 0 269 -122 269 -268v-2c0 -146 -115 -270 -271 -270zM324 57c112 0 190 90 190 199v2c0 111 -83 202 -192 202c-112 0 -189 -91 -189 -200v-2c0 -111 82 -201 191 -201zM323 593c-83 0 -142 46 -148 125
h56c12 -37 41 -63 92 -63s80 26 92 63h56c-6 -79 -65 -125 -148 -125z" />
    <glyph glyph-name="Ocircumflex" unicode="&#xd4;" horiz-adv-x="850" 
d="M424 -12c-213 0 -356 167 -356 360v2c0 193 145 362 358 362s356 -167 356 -360v-2c0 -193 -145 -362 -358 -362zM426 61c160 0 274 128 274 287v2c0 159 -116 289 -276 289s-274 -128 -274 -287v-2c0 -159 116 -289 276 -289zM279 772l110 118h72l110 -118h-72l-75 60
l-75 -60h-70z" />
    <glyph glyph-name="ocircumflex" unicode="&#xf4;" horiz-adv-x="646" 
d="M183 595l106 131h68l106 -131h-66l-75 67l-75 -67h-64zM322 -12c-155 0 -268 122 -268 268v2c0 146 114 270 270 270c155 0 269 -122 269 -268v-2c0 -146 -115 -270 -271 -270zM324 57c112 0 190 90 190 199v2c0 111 -83 202 -192 202c-112 0 -189 -91 -189 -200v-2
c0 -111 82 -201 191 -201z" />
    <glyph glyph-name="Odieresis" unicode="&#xd6;" horiz-adv-x="850" 
d="M472 772v90h93v-90h-93zM285 772v90h93v-90h-93zM424 -12c-213 0 -356 167 -356 360v2c0 193 145 362 358 362s356 -167 356 -360v-2c0 -193 -145 -362 -358 -362zM426 61c160 0 274 128 274 287v2c0 159 -116 289 -276 289s-274 -128 -274 -287v-2
c0 -159 116 -289 276 -289z" />
    <glyph glyph-name="odieresis" unicode="&#xf6;" horiz-adv-x="646" 
d="M366 595v95h89v-95h-89zM191 595v95h89v-95h-89zM322 -12c-155 0 -268 122 -268 268v2c0 146 114 270 270 270c155 0 269 -122 269 -268v-2c0 -146 -115 -270 -271 -270zM324 57c112 0 190 90 190 199v2c0 111 -83 202 -192 202c-112 0 -189 -91 -189 -200v-2
c0 -111 82 -201 191 -201z" />
    <glyph glyph-name="OE" unicode="&#x152;" horiz-adv-x="1131" 
d="M440 0c-220 0 -372 151 -372 348v2c0 197 152 350 372 350h626v-72h-409v-239h364v-72h-364v-245h414v-72h-631zM440 73h138v554h-138c-177 0 -290 -120 -290 -275v-2c0 -155 113 -277 290 -277z" />
    <glyph glyph-name="oe" unicode="&#x153;" horiz-adv-x="1049" 
d="M319 -12c-150 0 -265 122 -265 268v2c0 146 116 270 268 270c101 0 184 -56 226 -137c39 82 117 137 212 137c152 0 240 -122 240 -273c0 -10 0 -16 -1 -25h-409c10 -112 90 -175 181 -175c71 0 121 29 163 73l48 -43c-51 -58 -115 -97 -212 -97c-96 0 -181 53 -223 139
c-42 -81 -126 -139 -228 -139zM589 287h333c-8 94 -62 176 -164 176c-91 0 -159 -75 -169 -176zM323 57c111 0 188 90 188 199v2c0 111 -82 202 -190 202c-111 0 -188 -91 -188 -200v-2c0 -111 82 -201 190 -201z" />
    <glyph glyph-name="Ograve" unicode="&#xd2;" horiz-adv-x="850" 
d="M457 772h-64l-115 93l78 36zM424 -12c-213 0 -356 167 -356 360v2c0 193 145 362 358 362s356 -167 356 -360v-2c0 -193 -145 -362 -358 -362zM426 61c160 0 274 128 274 287v2c0 159 -116 289 -276 289s-274 -128 -274 -287v-2c0 -159 116 -289 276 -289z" />
    <glyph glyph-name="ograve" unicode="&#xf2;" horiz-adv-x="646" 
d="M322 -12c-155 0 -268 122 -268 268v2c0 146 114 270 270 270c155 0 269 -122 269 -268v-2c0 -146 -115 -270 -271 -270zM324 57c112 0 190 90 190 199v2c0 111 -83 202 -192 202c-112 0 -189 -91 -189 -200v-2c0 -111 82 -201 191 -201zM294 595l-114 108l80 37l94 -145
h-60z" />
    <glyph glyph-name="Ohungarumlaut" unicode="&#x150;" horiz-adv-x="850" 
d="M424 -12c-213 0 -356 167 -356 360v2c0 193 145 362 358 362s356 -167 356 -360v-2c0 -193 -145 -362 -358 -362zM426 61c160 0 274 128 274 287v2c0 159 -116 289 -276 289s-274 -128 -274 -287v-2c0 -159 116 -289 276 -289zM307 772l100 129l77 -36l-115 -93h-62z
M460 772l101 129l77 -36l-115 -93h-63z" />
    <glyph glyph-name="ohungarumlaut" unicode="&#x151;" horiz-adv-x="646" 
d="M358 595l95 145l75 -37l-110 -108h-60zM209 595l94 145l75 -37l-109 -108h-60zM322 -12c-155 0 -268 122 -268 268v2c0 146 114 270 270 270c155 0 269 -122 269 -268v-2c0 -146 -115 -270 -271 -270zM324 57c112 0 190 90 190 199v2c0 111 -83 202 -192 202
c-112 0 -189 -91 -189 -200v-2c0 -111 82 -201 191 -201z" />
    <glyph glyph-name="Omacron" unicode="&#x14c;" horiz-adv-x="850" 
d="M261 793v64h328v-64h-328zM424 -12c-213 0 -356 167 -356 360v2c0 193 145 362 358 362s356 -167 356 -360v-2c0 -193 -145 -362 -358 -362zM426 61c160 0 274 128 274 287v2c0 159 -116 289 -276 289s-274 -128 -274 -287v-2c0 -159 116 -289 276 -289z" />
    <glyph glyph-name="omacron" unicode="&#x14d;" horiz-adv-x="646" 
d="M167 615v63h312v-63h-312zM322 -12c-155 0 -268 122 -268 268v2c0 146 114 270 270 270c155 0 269 -122 269 -268v-2c0 -146 -115 -270 -271 -270zM324 57c112 0 190 90 190 199v2c0 111 -83 202 -192 202c-112 0 -189 -91 -189 -200v-2c0 -111 82 -201 191 -201z" />
    <glyph glyph-name="Oslash" unicode="&#xd8;" horiz-adv-x="850" 
d="M707 705h83l-99 -109c58 -65 91 -152 91 -244v-2c0 -193 -145 -362 -358 -362c-87 0 -161 27 -220 73l-61 -66h-83l98 108c-57 65 -90 152 -90 245v2c0 193 145 362 358 362c86 0 161 -28 219 -73zM149 351c0 -72 23 -139 63 -190l383 420c-46 37 -105 60 -171 60
c-161 0 -275 -129 -275 -289v-1zM426 59c161 0 275 129 275 289v1c0 72 -24 138 -64 189l-383 -419c46 -38 105 -60 172 -60z" />
    <glyph glyph-name="oslash" unicode="&#xf8;" horiz-adv-x="646" 
d="M530 523h78l-81 -86c42 -48 66 -110 66 -177v-2c0 -146 -115 -270 -271 -270c-63 0 -118 20 -162 53l-44 -46h-77l79 85c-41 47 -64 109 -64 176v2c0 146 114 270 270 270c62 0 117 -20 161 -53zM324 55c114 0 191 91 191 201v1c0 47 -14 91 -39 125l-268 -287
c32 -25 71 -40 116 -40zM131 260c0 -48 14 -91 39 -126l268 287c-32 25 -72 40 -116 40c-113 0 -191 -91 -191 -201z" />
    <glyph glyph-name="Oslashacute" unicode="&#x1fe;" horiz-adv-x="850" 
d="M707 705h83l-99 -109c58 -65 91 -152 91 -244v-2c0 -193 -145 -362 -358 -362c-87 0 -161 27 -220 73l-61 -66h-83l98 108c-57 65 -90 152 -90 245v2c0 193 145 362 358 362c86 0 161 -28 219 -73zM149 351c0 -72 23 -139 63 -190l383 420c-46 37 -105 60 -171 60
c-161 0 -275 -129 -275 -289v-1zM426 59c161 0 275 129 275 289v1c0 72 -24 138 -64 189l-383 -419c46 -38 105 -60 172 -60zM393 772l100 129l79 -36l-115 -93h-64z" />
    <glyph glyph-name="oslashacute" unicode="&#x1ff;" horiz-adv-x="646" 
d="M530 523h78l-81 -86c42 -48 66 -110 66 -177v-2c0 -146 -115 -270 -271 -270c-63 0 -118 20 -162 53l-44 -46h-77l79 85c-41 47 -64 109 -64 176v2c0 146 114 270 270 270c62 0 117 -20 161 -53zM324 55c114 0 191 91 191 201v1c0 47 -14 91 -39 125l-268 -287
c32 -25 71 -40 116 -40zM131 260c0 -48 14 -91 39 -126l268 287c-32 25 -72 40 -116 40c-113 0 -191 -91 -191 -201zM292 595l94 145l80 -37l-114 -108h-60z" />
    <glyph glyph-name="Otilde" unicode="&#xd5;" horiz-adv-x="850" 
d="M498 772c-23 0 -50 11 -77 22c-20 8 -41 17 -57 17c-26 0 -37 -14 -52 -48l-49 14c20 69 47 102 94 102c24 0 50 -11 77 -22c21 -8 42 -17 57 -17c26 0 37 14 52 47l49 -14c-20 -69 -47 -101 -94 -101zM424 -12c-213 0 -356 167 -356 360v2c0 193 145 362 358 362
s356 -167 356 -360v-2c0 -193 -145 -362 -358 -362zM426 61c160 0 274 128 274 287v2c0 159 -116 289 -276 289s-274 -128 -274 -287v-2c0 -159 116 -289 276 -289z" />
    <glyph glyph-name="otilde" unicode="&#xf5;" horiz-adv-x="646" 
d="M322 -12c-155 0 -268 122 -268 268v2c0 146 114 270 270 270c155 0 269 -122 269 -268v-2c0 -146 -115 -270 -271 -270zM324 57c112 0 190 90 190 199v2c0 111 -83 202 -192 202c-112 0 -189 -91 -189 -200v-2c0 -111 82 -201 191 -201zM395 595c-23 0 -47 10 -72 21
c-22 9 -45 19 -62 19c-26 0 -37 -13 -52 -49l-47 13c20 75 47 105 95 105c23 0 47 -10 72 -20c22 -10 45 -20 62 -20c26 0 37 13 52 49l47 -13c-20 -75 -47 -105 -95 -105z" />
    <glyph glyph-name="Racute" unicode="&#x154;" horiz-adv-x="723" 
d="M99 0v700h301c86 0 155 -26 199 -70c34 -34 54 -83 54 -138v-2c0 -116 -80 -184 -190 -204l215 -286h-97l-203 272h-200v-272h-79zM178 343h215c105 0 180 54 180 144v2c0 86 -66 138 -179 138h-216v-284zM319 762l100 129l79 -36l-115 -93h-64z" />
    <glyph glyph-name="racute" unicode="&#x155;" horiz-adv-x="405" 
d="M184 595l94 145l80 -37l-114 -108h-60zM86 0v517h77v-135c38 86 113 148 211 144v-83h-6c-113 0 -205 -81 -205 -237v-206h-77z" />
    <glyph glyph-name="Rcaron" unicode="&#x158;" horiz-adv-x="723" 
d="M99 0v700h301c86 0 155 -26 199 -70c34 -34 54 -83 54 -138v-2c0 -116 -80 -184 -190 -204l215 -286h-97l-203 272h-200v-272h-79zM178 343h215c105 0 180 54 180 144v2c0 86 -66 138 -179 138h-216v-284zM497 880l-110 -118h-72l-110 118h72l75 -60l75 60h70z" />
    <glyph glyph-name="rcaron" unicode="&#x159;" horiz-adv-x="405" 
d="M356 726l-106 -131h-68l-106 131h66l75 -67l75 67h64zM86 0v517h77v-135c38 86 113 148 211 144v-83h-6c-113 0 -205 -81 -205 -237v-206h-77z" />
    <glyph glyph-name="Rcommaaccent" unicode="&#x156;" horiz-adv-x="723" 
d="M99 0v700h301c86 0 155 -26 199 -70c34 -34 54 -83 54 -138v-2c0 -116 -80 -184 -190 -204l215 -286h-97l-203 272h-200v-272h-79zM178 343h215c105 0 180 54 180 144v2c0 86 -66 138 -179 138h-216v-284zM291 -238l-7 30c45 8 64 26 61 60h-40v83h90v-71
c0 -63 -35 -95 -104 -102z" />
    <glyph glyph-name="rcommaaccent" unicode="&#x157;" horiz-adv-x="405" 
d="M73 -243l-7 30c45 8 64 26 61 60h-40v83h90v-71c0 -63 -35 -95 -104 -102zM86 0v517h77v-135c38 86 113 148 211 144v-83h-6c-113 0 -205 -81 -205 -237v-206h-77z" />
    <glyph glyph-name="Sacute" unicode="&#x15a;" horiz-adv-x="640" 
d="M339 -10c-111 0 -202 37 -286 112l49 58c73 -66 143 -99 240 -99c94 0 156 50 156 119v2c0 65 -35 102 -182 133c-161 35 -235 87 -235 202v2c0 110 97 191 230 191c102 0 175 -29 246 -86l-46 -61c-65 53 -130 76 -202 76c-91 0 -149 -50 -149 -113v-2
c0 -66 36 -103 190 -136c156 -34 228 -91 228 -198v-2c0 -120 -100 -198 -239 -198zM295 772l100 129l79 -36l-115 -93h-64z" />
    <glyph glyph-name="sacute" unicode="&#x15b;" horiz-adv-x="498" 
d="M221 595l94 145l80 -37l-114 -108h-60zM257 -10c-74 0 -156 29 -214 76l39 55c56 -42 118 -66 179 -66c62 0 107 32 107 82v2c0 52 -61 72 -129 91c-81 23 -171 51 -171 146v2c0 89 74 148 176 148c63 0 133 -22 186 -57l-35 -58c-48 31 -103 50 -153 50
c-61 0 -100 -32 -100 -75v-2c0 -49 64 -68 133 -89c80 -24 166 -55 166 -148v-2c0 -98 -81 -155 -184 -155z" />
    <glyph glyph-name="Scaron" unicode="&#x160;" horiz-adv-x="640" 
d="M339 -10c-111 0 -202 37 -286 112l49 58c73 -66 143 -99 240 -99c94 0 156 50 156 119v2c0 65 -35 102 -182 133c-161 35 -235 87 -235 202v2c0 110 97 191 230 191c102 0 175 -29 246 -86l-46 -61c-65 53 -130 76 -202 76c-91 0 -149 -50 -149 -113v-2
c0 -66 36 -103 190 -136c156 -34 228 -91 228 -198v-2c0 -120 -100 -198 -239 -198zM472 890l-110 -118h-72l-110 118h72l75 -60l75 60h70z" />
    <glyph glyph-name="scaron" unicode="&#x161;" horiz-adv-x="498" 
d="M392 726l-106 -131h-68l-106 131h66l75 -67l75 67h64zM257 -10c-74 0 -156 29 -214 76l39 55c56 -42 118 -66 179 -66c62 0 107 32 107 82v2c0 52 -61 72 -129 91c-81 23 -171 51 -171 146v2c0 89 74 148 176 148c63 0 133 -22 186 -57l-35 -58c-48 31 -103 50 -153 50
c-61 0 -100 -32 -100 -75v-2c0 -49 64 -68 133 -89c80 -24 166 -55 166 -148v-2c0 -98 -81 -155 -184 -155z" />
    <glyph glyph-name="Scedilla" unicode="&#x15e;" horiz-adv-x="640" 
d="M295 -155l-75 34l77 113c-92 8 -171 44 -244 110l49 58c73 -66 143 -99 240 -99c94 0 156 50 156 119v2c0 65 -35 102 -182 133c-161 35 -235 87 -235 202v2c0 110 97 191 230 191c102 0 175 -29 246 -86l-46 -61c-65 53 -130 76 -202 76c-91 0 -149 -50 -149 -113v-2
c0 -66 36 -103 190 -136c156 -34 228 -91 228 -198v-2c0 -113 -89 -188 -216 -197z" />
    <glyph glyph-name="scedilla" unicode="&#x15f;" horiz-adv-x="498" 
d="M210 -155l-75 34l78 114c-61 8 -123 35 -170 73l39 55c56 -42 118 -66 179 -66c62 0 107 32 107 82v2c0 52 -61 72 -129 91c-81 23 -171 51 -171 146v2c0 89 74 148 176 148c63 0 133 -22 186 -57l-35 -58c-48 31 -103 50 -153 50c-61 0 -100 -32 -100 -75v-2
c0 -49 64 -68 133 -89c80 -24 166 -55 166 -148v-2c0 -92 -71 -147 -164 -154z" />
    <glyph glyph-name="Scommaaccent" unicode="&#x218;" horiz-adv-x="640" 
d="M267 -244l-7 30c45 8 64 26 61 60h-40v83h90v-71c0 -63 -35 -95 -104 -102zM339 -10c-111 0 -202 37 -286 112l49 58c73 -66 143 -99 240 -99c94 0 156 50 156 119v2c0 65 -35 102 -182 133c-161 35 -235 87 -235 202v2c0 110 97 191 230 191c102 0 175 -29 246 -86
l-46 -61c-65 53 -130 76 -202 76c-91 0 -149 -50 -149 -113v-2c0 -66 36 -103 190 -136c156 -34 228 -91 228 -198v-2c0 -120 -100 -198 -239 -198z" />
    <glyph glyph-name="scommaaccent" unicode="&#x219;" horiz-adv-x="498" 
d="M192 -243l-7 30c45 8 64 26 61 60h-40v83h90v-71c0 -63 -35 -95 -104 -102zM257 -10c-74 0 -156 29 -214 76l39 55c56 -42 118 -66 179 -66c62 0 107 32 107 82v2c0 52 -61 72 -129 91c-81 23 -171 51 -171 146v2c0 89 74 148 176 148c63 0 133 -22 186 -57l-35 -58
c-48 31 -103 50 -153 50c-61 0 -100 -32 -100 -75v-2c0 -49 64 -68 133 -89c80 -24 166 -55 166 -148v-2c0 -98 -81 -155 -184 -155z" />
    <glyph glyph-name="Tcaron" unicode="&#x164;" horiz-adv-x="648" 
d="M470 880l-110 -118h-72l-110 118h72l75 -60l75 60h70zM284 0v627h-235v73h550v-73h-235v-627h-80z" />
    <glyph glyph-name="tcaron" unicode="&#x165;" horiz-adv-x="404" 
d="M274 584l15 165h74v-3l-52 -162h-37zM259 -9c-83 0 -146 41 -146 146v312h-72v68h72v156h77v-156h164v-68h-164v-302c0 -63 35 -86 87 -86c26 0 48 5 75 18v-66c-27 -14 -56 -22 -93 -22z" />
    <glyph glyph-name="Tcommaaccent" unicode="&#x162;" horiz-adv-x="648" 
d="M264 -243l-7 30c45 8 64 26 61 60h-40v83h90v-71c0 -63 -35 -95 -104 -102zM284 0v627h-235v73h550v-73h-235v-627h-80z" />
    <glyph glyph-name="tcommaaccent" unicode="&#x163;" horiz-adv-x="404" 
d="M166 -243l-7 30c45 8 64 26 61 60h-40v83h90v-71c0 -63 -35 -95 -104 -102zM259 -9c-83 0 -146 41 -146 146v312h-72v68h72v156h77v-156h164v-68h-164v-302c0 -63 35 -86 87 -86c26 0 48 5 75 18v-66c-27 -14 -56 -22 -93 -22z" />
    <glyph glyph-name="Thorn" unicode="&#xde;" horiz-adv-x="673" 
d="M99 0v700h79v-120h183c158 0 262 -85 262 -222v-2c0 -151 -126 -230 -275 -230h-170v-126h-79zM178 198h173c116 0 192 63 192 155v2c0 100 -75 152 -188 152h-177v-309z" />
    <glyph glyph-name="thorn" unicode="&#xfe;" horiz-adv-x="664" 
d="M86 -160v890h77v-317c42 62 103 115 198 115c124 0 247 -98 247 -268v-2c0 -169 -122 -269 -247 -269c-96 0 -158 52 -198 110v-259h-77zM347 58c100 0 182 74 182 199v2c0 122 -84 200 -182 200c-96 0 -187 -81 -187 -199v-2c0 -120 91 -200 187 -200z" />
    <glyph glyph-name="Uacute" unicode="&#xda;" horiz-adv-x="759" 
d="M347 759l100 129l79 -36l-115 -93h-64zM379 -11c-173 0 -291 106 -291 304v407h79v-402c0 -151 81 -236 214 -236c129 0 211 78 211 231v407h79v-401c0 -204 -117 -310 -292 -310z" />
    <glyph glyph-name="uacute" unicode="&#xfa;" horiz-adv-x="616" 
d="M272 595l94 145l80 -37l-114 -108h-60zM276 -11c-125 0 -198 84 -198 207v321h77v-302c0 -96 52 -156 143 -156c88 0 155 65 155 162v296h76v-517h-76v90c-35 -56 -88 -101 -177 -101z" />
    <glyph glyph-name="Ubreve" unicode="&#x16c;" horiz-adv-x="759" 
d="M379 754c-83 0 -142 42 -148 114h60c11 -32 39 -52 88 -52s77 20 88 52h60c-6 -72 -65 -114 -148 -114zM379 -11c-173 0 -291 106 -291 304v407h79v-402c0 -151 81 -236 214 -236c129 0 211 78 211 231v407h79v-401c0 -204 -117 -310 -292 -310z" />
    <glyph glyph-name="ubreve" unicode="&#x16d;" horiz-adv-x="616" 
d="M276 -11c-125 0 -198 84 -198 207v321h77v-302c0 -96 52 -156 143 -156c88 0 155 65 155 162v296h76v-517h-76v90c-35 -56 -88 -101 -177 -101zM303 593c-83 0 -142 46 -148 125h56c12 -37 41 -63 92 -63s80 26 92 63h56c-6 -79 -65 -125 -148 -125z" />
    <glyph glyph-name="Ucircumflex" unicode="&#xdb;" horiz-adv-x="759" 
d="M379 -11c-173 0 -291 106 -291 304v407h79v-402c0 -151 81 -236 214 -236c129 0 211 78 211 231v407h79v-401c0 -204 -117 -310 -292 -310zM233 759l110 118h72l110 -118h-72l-75 60l-75 -60h-70z" />
    <glyph glyph-name="ucircumflex" unicode="&#xfb;" horiz-adv-x="616" 
d="M163 595l106 131h68l106 -131h-66l-75 67l-75 -67h-64zM276 -11c-125 0 -198 84 -198 207v321h77v-302c0 -96 52 -156 143 -156c88 0 155 65 155 162v296h76v-517h-76v90c-35 -56 -88 -101 -177 -101z" />
    <glyph glyph-name="Udieresis" unicode="&#xdc;" horiz-adv-x="759" 
d="M427 759v90h93v-90h-93zM240 759v90h93v-90h-93zM379 -11c-173 0 -291 106 -291 304v407h79v-402c0 -151 81 -236 214 -236c129 0 211 78 211 231v407h79v-401c0 -204 -117 -310 -292 -310z" />
    <glyph glyph-name="udieresis" unicode="&#xfc;" horiz-adv-x="616" 
d="M346 595v95h89v-95h-89zM171 595v95h89v-95h-89zM276 -11c-125 0 -198 84 -198 207v321h77v-302c0 -96 52 -156 143 -156c88 0 155 65 155 162v296h76v-517h-76v90c-35 -56 -88 -101 -177 -101z" />
    <glyph glyph-name="Ugrave" unicode="&#xd9;" horiz-adv-x="759" 
d="M411 759h-64l-115 93l78 36zM379 -11c-173 0 -291 106 -291 304v407h79v-402c0 -151 81 -236 214 -236c129 0 211 78 211 231v407h79v-401c0 -204 -117 -310 -292 -310z" />
    <glyph glyph-name="ugrave" unicode="&#xf9;" horiz-adv-x="616" 
d="M276 -11c-125 0 -198 84 -198 207v321h77v-302c0 -96 52 -156 143 -156c88 0 155 65 155 162v296h76v-517h-76v90c-35 -56 -88 -101 -177 -101zM274 595l-114 108l80 37l94 -145h-60z" />
    <glyph glyph-name="Uhungarumlaut" unicode="&#x170;" horiz-adv-x="759" 
d="M379 -11c-173 0 -291 106 -291 304v407h79v-402c0 -151 81 -236 214 -236c129 0 211 78 211 231v407h79v-401c0 -204 -117 -310 -292 -310zM262 759l100 129l77 -36l-115 -93h-62zM415 759l101 129l77 -36l-115 -93h-63z" />
    <glyph glyph-name="uhungarumlaut" unicode="&#x171;" horiz-adv-x="616" 
d="M276 -11c-125 0 -198 84 -198 207v321h77v-302c0 -96 52 -156 143 -156c88 0 155 65 155 162v296h76v-517h-76v90c-35 -56 -88 -101 -177 -101zM338 595l95 145l75 -37l-110 -108h-60zM189 595l94 145l75 -37l-109 -108h-60z" />
    <glyph glyph-name="Umacron" unicode="&#x16a;" horiz-adv-x="759" 
d="M215 780v64h328v-64h-328zM379 -11c-173 0 -291 106 -291 304v407h79v-402c0 -151 81 -236 214 -236c129 0 211 78 211 231v407h79v-401c0 -204 -117 -310 -292 -310z" />
    <glyph glyph-name="umacron" unicode="&#x16b;" horiz-adv-x="616" 
d="M276 -11c-125 0 -198 84 -198 207v321h77v-302c0 -96 52 -156 143 -156c88 0 155 65 155 162v296h76v-517h-76v90c-35 -56 -88 -101 -177 -101zM147 615v63h312v-63h-312z" />
    <glyph glyph-name="Uogonek" unicode="&#x172;" horiz-adv-x="759" 
d="M444 -120v-44c-4 -1 -8 -1 -12 -1c-84 2 -128 35 -128 81c0 28 13 51 37 75c-152 14 -253 118 -253 302v407h79v-402c0 -151 81 -236 214 -236c129 0 211 78 211 231v407h79v-401c0 -193 -105 -298 -264 -309c-26 -23 -37 -41 -37 -63c0 -28 22 -44 74 -47z" />
    <glyph glyph-name="uogonek" unicode="&#x173;" horiz-adv-x="616" 
d="M276 -11c-125 0 -198 84 -198 207v321h77v-302c0 -96 52 -156 143 -156c88 0 155 65 155 162v296h76v-517h-12c-33 -28 -48 -48 -48 -73c0 -28 22 -44 74 -47v-44c-4 -1 -8 -1 -12 -1c-84 2 -128 35 -128 81c0 33 18 58 50 87v87c-35 -56 -88 -101 -177 -101z" />
    <glyph glyph-name="Uring" unicode="&#x16e;" horiz-adv-x="759" 
d="M379 -11c-173 0 -291 106 -291 304v407h79v-402c0 -151 81 -236 214 -236c129 0 211 78 211 231v407h79v-401c0 -204 -117 -310 -292 -310zM379 743c-60 0 -111 42 -111 99s51 99 111 99s111 -42 111 -99s-51 -99 -111 -99zM379 781c38 0 67 27 67 61c0 35 -29 61 -67 61
s-67 -26 -67 -61c0 -34 29 -61 67 -61z" />
    <glyph glyph-name="uring" unicode="&#x16f;" horiz-adv-x="616" 
d="M303 582c-60 0 -109 47 -109 105c0 57 49 104 109 104s109 -47 109 -104c0 -58 -49 -105 -109 -105zM303 618c37 0 69 31 69 69c0 37 -32 69 -69 69s-69 -32 -69 -69c0 -38 32 -69 69 -69zM276 -11c-125 0 -198 84 -198 207v321h77v-302c0 -96 52 -156 143 -156
c88 0 155 65 155 162v296h76v-517h-76v90c-35 -56 -88 -101 -177 -101z" />
    <glyph glyph-name="Wacute" unicode="&#x1e82;" horiz-adv-x="1107" 
d="M521 762l100 129l79 -36l-115 -93h-64zM295 -5l-250 705h86l200 -583l192 585h65l192 -585l200 583h83l-250 -705h-67l-192 568l-193 -568h-66z" />
    <glyph glyph-name="wacute" unicode="&#x1e83;" horiz-adv-x="861" 
d="M398 595l94 145l80 -37l-114 -108h-60zM223 -4l-181 521h82l136 -415l139 417h64l140 -417l136 415h80l-182 -521h-67l-139 408l-140 -408h-68z" />
    <glyph glyph-name="Wcircumflex" unicode="&#x174;" horiz-adv-x="1107" 
d="M295 -5l-250 705h86l200 -583l192 585h65l192 -585l200 583h83l-250 -705h-67l-192 568l-193 -568h-66zM407 762l110 118h72l110 -118h-72l-75 60l-75 -60h-70z" />
    <glyph glyph-name="wcircumflex" unicode="&#x175;" horiz-adv-x="861" 
d="M290 595l106 131h68l106 -131h-66l-75 67l-75 -67h-64zM223 -4l-181 521h82l136 -415l139 417h64l140 -417l136 415h80l-182 -521h-67l-139 408l-140 -408h-68z" />
    <glyph glyph-name="Wdieresis" unicode="&#x1e84;" horiz-adv-x="1107" 
d="M601 762v90h93v-90h-93zM414 762v90h93v-90h-93zM295 -5l-250 705h86l200 -583l192 585h65l192 -585l200 583h83l-250 -705h-67l-192 568l-193 -568h-66z" />
    <glyph glyph-name="wdieresis" unicode="&#x1e85;" horiz-adv-x="861" 
d="M473 595v95h89v-95h-89zM298 595v95h89v-95h-89zM223 -4l-181 521h82l136 -415l139 417h64l140 -417l136 415h80l-182 -521h-67l-139 408l-140 -408h-68z" />
    <glyph glyph-name="Wgrave" unicode="&#x1e80;" horiz-adv-x="1107" 
d="M586 762h-64l-115 93l78 36zM295 -5l-250 705h86l200 -583l192 585h65l192 -585l200 583h83l-250 -705h-67l-192 568l-193 -568h-66z" />
    <glyph glyph-name="wgrave" unicode="&#x1e81;" horiz-adv-x="861" 
d="M223 -4l-181 521h82l136 -415l139 417h64l140 -417l136 415h80l-182 -521h-67l-139 408l-140 -408h-68zM401 595l-114 108l80 37l94 -145h-60z" />
    <glyph glyph-name="Yacute" unicode="&#xdd;" horiz-adv-x="716" 
d="M318 0v277l-291 423h96l236 -350l238 350h92l-291 -422v-278h-80zM326 759l100 129l79 -36l-115 -93h-64z" />
    <glyph glyph-name="yacute" unicode="&#xfd;" horiz-adv-x="591" 
d="M307 86l166 431h82l-217 -534c-44 -107 -94 -146 -172 -146c-43 0 -75 9 -110 26l26 61c25 -13 48 -19 81 -19c46 0 75 24 106 97l-235 515h85zM267 595l94 145l80 -37l-114 -108h-60z" />
    <glyph glyph-name="Ycircumflex" unicode="&#x176;" horiz-adv-x="716" 
d="M318 0v277l-291 423h96l236 -350l238 350h92l-291 -422v-278h-80zM212 759l110 118h72l110 -118h-72l-75 60l-75 -60h-70z" />
    <glyph glyph-name="ycircumflex" unicode="&#x177;" horiz-adv-x="591" 
d="M307 86l166 431h82l-217 -534c-44 -107 -94 -146 -172 -146c-43 0 -75 9 -110 26l26 61c25 -13 48 -19 81 -19c46 0 75 24 106 97l-235 515h85zM158 595l106 131h68l106 -131h-66l-75 67l-75 -67h-64z" />
    <glyph glyph-name="Ydieresis" unicode="&#x178;" horiz-adv-x="716" 
d="M318 0v277l-291 423h96l236 -350l238 350h92l-291 -422v-278h-80zM405 759v90h93v-90h-93zM218 759v90h93v-90h-93z" />
    <glyph glyph-name="ydieresis" unicode="&#xff;" horiz-adv-x="591" 
d="M307 86l166 431h82l-217 -534c-44 -107 -94 -146 -172 -146c-43 0 -75 9 -110 26l26 61c25 -13 48 -19 81 -19c46 0 75 24 106 97l-235 515h85zM341 595v95h89v-95h-89zM166 595v95h89v-95h-89z" />
    <glyph glyph-name="Ygrave" unicode="&#x1ef2;" horiz-adv-x="716" 
d="M318 0v277l-291 423h96l236 -350l238 350h92l-291 -422v-278h-80zM390 759h-64l-115 93l78 36z" />
    <glyph glyph-name="ygrave" unicode="&#x1ef3;" horiz-adv-x="591" 
d="M307 86l166 431h82l-217 -534c-44 -107 -94 -146 -172 -146c-43 0 -75 9 -110 26l26 61c25 -13 48 -19 81 -19c46 0 75 24 106 97l-235 515h85zM269 595l-114 108l80 37l94 -145h-60z" />
    <glyph glyph-name="Zacute" unicode="&#x179;" horiz-adv-x="693" 
d="M67 0v53l453 576h-438v71h546v-53l-454 -576h454v-71h-561zM323 762l100 129l79 -36l-115 -93h-64z" />
    <glyph glyph-name="zacute" unicode="&#x17a;" horiz-adv-x="556" 
d="M251 595l94 145l80 -37l-114 -108h-60zM56 0v49l343 403h-331v65h436v-49l-344 -403h344v-65h-448z" />
    <glyph glyph-name="Zcaron" unicode="&#x17d;" horiz-adv-x="693" 
d="M500 880l-110 -118h-72l-110 118h72l75 -60l75 60h70zM67 0v53l453 576h-438v71h546v-53l-454 -576h454v-71h-561z" />
    <glyph glyph-name="zcaron" unicode="&#x17e;" horiz-adv-x="556" 
d="M422 726l-106 -131h-68l-106 131h66l75 -67l75 67h64zM56 0v49l343 403h-331v65h436v-49l-344 -403h344v-65h-448z" />
    <glyph glyph-name="Zdotaccent" unicode="&#x17b;" horiz-adv-x="693" 
d="M306 762v90h96v-90h-96zM67 0v53l453 576h-438v71h546v-53l-454 -576h454v-71h-561z" />
    <glyph glyph-name="zdotaccent" unicode="&#x17c;" horiz-adv-x="556" 
d="M56 0v49l343 403h-331v65h436v-49l-344 -403h344v-65h-448zM235 595v96h94v-96h-94z" />
    <glyph glyph-name="schwa" unicode="&#x259;" horiz-adv-x="592" 
d="M279 529c142 0 258 -109 258 -269v-2c0 -149 -105 -269 -248 -269c-153 0 -241 122 -241 273c0 10 0 16 1 25h410c-11 112 -90 175 -182 175c-71 0 -121 -29 -163 -73l-48 43c52 58 115 97 213 97zM459 230h-333c8 -94 62 -176 165 -176c90 0 158 75 168 176z" />
    <glyph glyph-name="germandbls" unicode="&#xdf;" horiz-adv-x="620" 
d="M292 -2v62c118 3 191 48 191 132v2c0 80 -75 125 -191 137v57c84 31 148 80 148 162v2c0 69 -53 117 -131 117c-85 0 -146 -65 -146 -167v-502h-77v501c0 141 88 236 227 236c126 0 206 -79 206 -180v-2c0 -94 -69 -153 -139 -183c94 -21 182 -74 182 -178v-2
c0 -124 -104 -196 -270 -194z" />
    <glyph glyph-name="zero" unicode="0" horiz-adv-x="715" 
d="M357 -12c-181 0 -295 164 -295 360v2c0 196 117 362 297 362s294 -164 294 -360v-2c0 -196 -116 -362 -296 -362zM359 60c131 0 212 135 212 288v2c0 153 -84 290 -214 290c-131 0 -213 -134 -213 -288v-2c0 -153 84 -290 215 -290z" />
    <glyph glyph-name="one" unicode="1" horiz-adv-x="358" 
d="M179 0v623l-132 -41l-19 64l171 59h58v-705h-78z" />
    <glyph glyph-name="two" unicode="2" horiz-adv-x="599" 
d="M48 0v61l254 224c107 96 146 150 146 220c0 82 -65 134 -141 134c-80 0 -132 -42 -188 -120l-58 42c63 94 129 149 252 149c126 0 217 -84 217 -198v-2c0 -102 -54 -165 -177 -272l-187 -166h371v-72h-489z" />
    <glyph glyph-name="three" unicode="3" horiz-adv-x="613" 
d="M311 -12c-117 0 -204 51 -261 125l58 51c53 -66 118 -104 204 -104c85 0 153 54 153 136v2c0 87 -81 135 -196 135h-45l-16 47l221 249h-342v71h447v-58l-220 -244c122 -10 231 -69 231 -197v-2c0 -125 -104 -211 -234 -211z" />
    <glyph glyph-name="three.alt" horiz-adv-x="604" 
d="M306 -12c-113 0 -205 53 -263 126l58 50c51 -64 118 -104 207 -104c92 0 158 51 158 130v2c0 79 -69 127 -187 127h-72v68h74c96 0 166 49 166 129v2c0 70 -59 122 -150 122c-78 0 -133 -36 -181 -100l-58 42c56 79 130 130 241 130c134 0 228 -79 228 -187v-2
c0 -92 -60 -140 -122 -164c80 -26 141 -78 141 -167v-2c0 -112 -96 -202 -240 -202z" />
    <glyph glyph-name="four" unicode="4" horiz-adv-x="671" 
d="M432 0v166h-369l-20 58l396 481h70v-473h108v-66h-108v-166h-77zM138 232h294v361z" />
    <glyph glyph-name="five" unicode="5" horiz-adv-x="612" 
d="M303 -12c-100 0 -187 48 -250 111l52 57c61 -59 128 -96 199 -96c100 0 169 67 169 155v2c0 87 -72 147 -174 147c-59 0 -106 -18 -147 -40l-53 35l20 341h403v-73h-334l-15 -224c41 18 80 31 138 31c136 0 242 -80 242 -214v-2c0 -137 -104 -230 -250 -230z" />
    <glyph glyph-name="six" unicode="6" horiz-adv-x="647" 
d="M333 -12c-77 0 -140 27 -184 71c-56 56 -88 128 -88 271v2c0 213 108 380 291 380c84 0 146 -30 207 -80l-46 -61c-52 44 -101 69 -165 69c-135 0 -206 -142 -206 -300v-10c46 67 109 108 200 108c130 0 242 -84 242 -215v-2c0 -135 -109 -233 -251 -233zM334 58
c103 0 169 71 169 160v2c0 86 -70 150 -171 150c-105 0 -175 -75 -175 -153v-2c0 -89 74 -157 177 -157z" />
    <glyph glyph-name="seven" unicode="7" horiz-adv-x="596" 
d="M137 0l316 628h-385v72h475v-59l-318 -641h-88z" />
    <glyph glyph-name="eight" unicode="8" horiz-adv-x="630" 
d="M315 -10c-149 0 -263 81 -263 198v2c0 83 60 142 144 172c-65 30 -120 80 -120 161v2c0 108 111 185 239 185s239 -77 239 -185v-2c0 -81 -55 -131 -120 -161c83 -31 144 -88 144 -171v-2c0 -119 -114 -199 -263 -199zM315 390c89 0 160 52 160 128v2
c0 69 -69 121 -160 121s-160 -51 -160 -121v-2c0 -76 71 -128 160 -128zM315 59c115 0 183 60 183 131v2c0 78 -81 133 -183 133s-183 -55 -183 -133v-2c0 -70 68 -131 183 -131z" />
    <glyph glyph-name="nine" unicode="9" horiz-adv-x="647" 
d="M297 60c135 0 208 141 208 292v14c-44 -68 -108 -111 -198 -111c-144 0 -244 91 -244 217v2c0 133 103 238 252 238c80 0 139 -27 184 -72c53 -53 87 -131 87 -271v-2c0 -222 -118 -379 -291 -379c-91 0 -157 37 -216 86l46 61c57 -50 110 -75 172 -75zM316 323
c107 0 174 78 174 158v2c0 89 -73 159 -178 159s-168 -77 -168 -164v-2c0 -89 70 -153 172 -153z" />
    <glyph glyph-name="period" unicode="." horiz-adv-x="245" 
d="M77 0v105h92v-105h-92z" />
    <glyph glyph-name="comma" unicode="," horiz-adv-x="245" 
d="M58 -122l-12 35c50 18 71 44 67 87h-36v105h92v-90c0 -81 -35 -120 -111 -137z" />
    <glyph glyph-name="colon" unicode=":" horiz-adv-x="255" 
d="M82 412v105h92v-105h-92zM82 0v105h92v-105h-92z" />
    <glyph glyph-name="semicolon" unicode=";" horiz-adv-x="255" 
d="M82 412v105h92v-105h-92zM63 -122l-12 35c50 18 71 44 67 87h-36v105h92v-90c0 -81 -35 -120 -111 -137z" />
    <glyph glyph-name="ellipsis" unicode="&#x2026;" horiz-adv-x="723" 
d="M557 0v103h90v-103h-90zM317 0v103h89v-103h-89zM77 0v103h89v-103h-89z" />
    <glyph glyph-name="periodcentered" unicode="&#xb7;" horiz-adv-x="245" 
d="M77 248v106h92v-106h-92z" />
    <glyph glyph-name="bullet" unicode="&#x2022;" horiz-adv-x="478" 
d="M239 221c-72 0 -131 58 -131 130v2c0 72 61 130 131 130c69 0 131 -58 131 -130v-2c0 -72 -59 -130 -131 -130z" />
    <glyph glyph-name="ampersand" unicode="&#x26;" horiz-adv-x="696" 
d="M604 -14l-110 113c-64 -69 -138 -109 -229 -109c-126 0 -220 79 -220 196v2c0 93 62 160 169 202c-48 56 -70 99 -70 154v2c0 92 74 166 185 166c98 0 170 -71 170 -158v-2c0 -89 -63 -146 -165 -182l160 -163c31 45 59 98 84 156l65 -30c-31 -66 -63 -126 -101 -176
l122 -125zM290 415c89 30 135 73 135 133v2c0 56 -42 97 -99 97c-63 0 -106 -44 -106 -101v-2c0 -41 17 -72 70 -129zM271 57c66 0 124 35 175 91l-187 193c-93 -34 -134 -91 -134 -150v-2c0 -75 60 -132 146 -132z" />
    <glyph glyph-name="exclam" unicode="!" horiz-adv-x="271" 
d="M114 198l-23 446v56h90v-56l-24 -446h-43zM90 0v105h92v-105h-92z" />
    <glyph glyph-name="exclamdown" unicode="&#xa1;" horiz-adv-x="271" 
d="M90 595v105h92v-105h-92zM91 0v57l23 445h43l24 -445v-57h-90z" />
    <glyph glyph-name="question" unicode="?" horiz-adv-x="537" 
d="M220 198l-15 162l5 5c130 3 199 57 199 141v2c0 72 -56 130 -146 130c-74 0 -131 -35 -182 -94l-51 49c57 69 128 116 235 116c135 0 224 -84 224 -198v-2c0 -125 -94 -187 -208 -203l-10 -108h-51zM199 0v105h92v-105h-92z" />
    <glyph glyph-name="questiondown" unicode="&#xbf;" horiz-adv-x="537" 
d="M246 595v105h92v-105h-92zM272 -9c-136 0 -224 84 -224 198v2c0 125 94 187 208 203l9 108h51l16 -162l-5 -5c-130 -3 -199 -57 -199 -141v-2c0 -72 56 -130 146 -130c73 0 131 35 181 94l51 -49c-57 -69 -127 -116 -234 -116z" />
    <glyph glyph-name="quotedblleft" unicode="&#x201c;" horiz-adv-x="445" 
d="M272 478v90c0 81 34 120 110 137l12 -35c-50 -18 -70 -44 -67 -87h37v-105h-92zM72 478v90c0 81 34 120 110 137l12 -35c-50 -18 -70 -44 -67 -87h37v-105h-92z" />
    <glyph glyph-name="quotedblright" unicode="&#x201d;" horiz-adv-x="445" 
d="M263 473l-12 35c50 18 71 44 67 87h-36v105h92v-90c0 -81 -35 -120 -111 -137zM63 473l-12 35c50 18 71 44 67 87h-36v105h92v-90c0 -81 -35 -120 -111 -137z" />
    <glyph glyph-name="quoteleft" unicode="&#x2018;" horiz-adv-x="245" 
d="M72 478v90c0 81 34 120 110 137l12 -35c-50 -18 -70 -44 -67 -87h37v-105h-92z" />
    <glyph glyph-name="quoteright" unicode="&#x2019;" horiz-adv-x="245" 
d="M63 473l-12 35c50 18 71 44 67 87h-36v105h92v-90c0 -81 -35 -120 -111 -137z" />
    <glyph glyph-name="quotedblbase" unicode="&#x201e;" horiz-adv-x="445" 
d="M258 -122l-12 35c50 18 71 44 67 87h-36v105h92v-90c0 -81 -35 -120 -111 -137zM58 -122l-12 35c50 18 71 44 67 87h-36v105h92v-90c0 -81 -35 -120 -111 -137z" />
    <glyph glyph-name="quotesinglbase" unicode="&#x201a;" horiz-adv-x="245" 
d="M58 -122l-12 35c50 18 71 44 67 87h-36v105h92v-90c0 -81 -35 -120 -111 -137z" />
    <glyph glyph-name="guillemotleft" unicode="&#xab;" horiz-adv-x="550" 
d="M436 42l-165 213v8l165 212l55 -32l-132 -183l132 -186zM213 42l-165 213v8l165 212l56 -32l-133 -183l133 -186z" />
    <glyph glyph-name="guillemotright" unicode="&#xbb;" horiz-adv-x="550" 
d="M337 42l-56 32l133 184l-133 185l56 32l165 -212v-8zM115 42l-56 32l132 184l-132 185l56 32l164 -212v-8z" />
    <glyph glyph-name="guilsinglleft" unicode="&#x2039;" horiz-adv-x="328" 
d="M213 42l-165 213v8l165 212l56 -32l-133 -183l133 -186z" />
    <glyph glyph-name="guilsinglright" unicode="&#x203a;" horiz-adv-x="328" 
d="M115 42l-56 32l132 184l-132 185l56 32l164 -212v-8z" />
    <glyph glyph-name="hyphen" unicode="-" horiz-adv-x="408" 
d="M65 260v81h278v-81h-278z" />
    <glyph glyph-name="endash" unicode="&#x2013;" horiz-adv-x="528" 
d="M65 262v77h398v-77h-398z" />
    <glyph glyph-name="emdash" unicode="&#x2014;" horiz-adv-x="898" 
d="M65 262v77h768v-77h-768z" />
    <glyph glyph-name="underscore" unicode="_" horiz-adv-x="600" 
d="M-2 -160v63h604v-63h-604z" />
    <glyph glyph-name="slash" unicode="/" horiz-adv-x="508" 
d="M-21 -128l464 926h71l-464 -926h-71z" />
    <glyph glyph-name="backslash" unicode="\" horiz-adv-x="508" 
d="M458 -128l-464 926h71l464 -926h-71z" />
    <glyph glyph-name="bar" unicode="|" horiz-adv-x="303" 
d="M119 -128v926h65v-926h-65z" />
    <glyph glyph-name="parenleft" unicode="(" horiz-adv-x="434" 
d="M345 -141c-178 100 -277 244 -277 428s99 328 277 428l33 -51c-152 -97 -232 -217 -232 -377s80 -280 232 -377z" />
    <glyph glyph-name="parenright" unicode=")" horiz-adv-x="434" 
d="M89 -141l-33 51c152 97 232 217 232 377s-80 280 -232 377l33 51c178 -100 277 -244 277 -428s-99 -328 -277 -428z" />
    <glyph glyph-name="bracketleft" unicode="[" horiz-adv-x="439" 
d="M94 -130v830h286v-60h-213v-710h213v-60h-286z" />
    <glyph glyph-name="bracketright" unicode="]" horiz-adv-x="439" 
d="M59 -130v60h214v710h-214v60h287v-830h-287z" />
    <glyph glyph-name="braceleft" unicode="{" horiz-adv-x="483" 
d="M416 -141c-180 33 -217 98 -217 202c0 15 1 59 1 76c0 78 -28 120 -118 120h-26v60h26c90 0 118 42 118 120c0 17 -1 61 -1 76c0 104 37 169 217 202l12 -51c-140 -36 -156 -71 -156 -161c0 -20 1 -54 1 -75c0 -84 -40 -121 -104 -141c67 -22 104 -57 104 -141
c0 -21 -1 -55 -1 -75c0 -90 16 -125 156 -161z" />
    <glyph glyph-name="braceright" unicode="}" horiz-adv-x="483" 
d="M67 -141l-13 51c141 36 157 71 157 161c0 20 -1 54 -1 75c0 84 40 121 104 141c-67 22 -104 57 -104 141c0 21 1 55 1 75c0 90 -16 125 -157 161l13 51c180 -33 217 -98 217 -202c0 -15 -1 -59 -1 -76c0 -78 28 -120 117 -120h26v-60h-26c-89 0 -117 -42 -117 -120
c0 -17 1 -61 1 -76c0 -104 -37 -169 -217 -202z" />
    <glyph glyph-name="at" unicode="@" horiz-adv-x="980" 
d="M499 -162c-256 0 -446 197 -446 436s193 438 438 438s436 -187 436 -396c0 -170 -95 -245 -187 -245c-73 0 -121 34 -140 84c-39 -46 -90 -84 -165 -84c-98 0 -179 72 -179 182c0 142 118 249 231 249c78 0 122 -41 146 -83l13 69l67 -9l-40 -227c-5 -28 -7 -50 -7 -61
c0 -51 31 -81 85 -81c71 0 140 64 140 206c0 184 -171 362 -400 362c-230 0 -402 -182 -402 -404c0 -223 170 -402 410 -402c100 0 172 23 249 68l16 -27c-77 -47 -161 -75 -265 -75zM450 133c40 0 79 19 108 48c34 34 56 82 56 132c0 73 -52 127 -122 127
c-40 0 -79 -18 -110 -49c-32 -33 -54 -80 -54 -133c0 -79 51 -125 122 -125z" />
    <glyph glyph-name="copyright" unicode="&#xa9;" horiz-adv-x="830" 
d="M414 -12c-203 0 -361 163 -361 360v2c0 197 160 362 363 362s361 -163 361 -360v-2c0 -197 -160 -362 -363 -362zM414 19c188 0 330 150 330 331v2c0 181 -141 329 -328 329c-188 0 -330 -150 -330 -331v-2c0 -181 141 -329 328 -329zM419 163c-106 0 -186 86 -186 191v2
c0 104 80 191 188 191c67 0 107 -25 144 -60l-37 -40c-29 28 -64 50 -108 50c-75 0 -131 -64 -131 -140v-2c0 -77 58 -141 132 -141c47 0 77 19 110 50l36 -35c-39 -40 -81 -66 -148 -66z" />
    <glyph glyph-name="published" unicode="&#x2117;" horiz-adv-x="830" 
d="M414 -12c-203 0 -361 163 -361 360v2c0 197 160 362 363 362s361 -163 361 -360v-2c0 -197 -160 -362 -363 -362zM414 19c188 0 330 150 330 331v2c0 181 -141 329 -328 329c-188 0 -330 -150 -330 -331v-2c0 -181 141 -329 328 -329zM292 172v371h146
c87 0 144 -44 144 -120v-2c0 -83 -71 -124 -151 -124h-83v-125h-56zM348 347h84c57 0 94 27 94 73v2c0 48 -36 71 -93 71h-85v-146z" />
    <glyph glyph-name="registered.alt" horiz-adv-x="830" 
d="M414 -12c-203 0 -361 163 -361 360v2c0 197 160 362 363 362s361 -163 361 -360v-2c0 -197 -160 -362 -363 -362zM414 19c188 0 330 150 330 331v2c0 181 -141 329 -328 329c-188 0 -330 -150 -330 -331v-2c0 -181 141 -329 328 -329zM273 175v371h166
c47 0 86 -15 110 -39c18 -17 30 -42 30 -72v-2c0 -60 -40 -96 -96 -109l115 -149h-68l-107 140h-95v-140h-55zM328 364h106c52 0 88 24 88 66v2c0 39 -32 64 -85 64h-109v-132z" />
    <glyph glyph-name="registered" unicode="&#xae;" horiz-adv-x="403" 
d="M202 360c-98 0 -174 79 -174 174v1c0 95 77 175 174 175c98 0 174 -79 174 -174v-1c0 -95 -77 -175 -174 -175zM202 379c87 0 154 71 154 156v1c0 85 -66 155 -154 155c-87 0 -154 -71 -154 -156v-1c0 -85 66 -155 154 -155zM134 450v177h80c39 0 68 -19 68 -56
c0 -29 -17 -47 -41 -54l47 -67h-41l-42 61h-37v-61h-34zM168 539h43c23 0 36 12 36 29c0 19 -13 29 -36 29h-43v-58z" />
    <glyph glyph-name="servicemark" unicode="&#x2120;" horiz-adv-x="707" 
d="M353 392v308h47l109 -169l110 169h46v-308h-44v236l-110 -167h-5l-110 167v-236h-43zM166 387c-50 0 -97 18 -134 50l26 31c32 -27 67 -43 109 -43c41 0 68 20 68 49c0 27 -18 40 -80 54c-69 15 -108 36 -108 89c0 51 45 88 110 88c44 0 81 -13 113 -39l-25 -32
c-27 21 -57 33 -90 33c-40 0 -64 -20 -64 -46s17 -41 81 -55c68 -15 107 -38 107 -88c0 -56 -50 -91 -113 -91z" />
    <glyph glyph-name="trademark" unicode="&#x2122;" horiz-adv-x="690" 
d="M336 392v308h47l110 -169l109 169h46v-308h-43v236l-110 -167h-6l-109 167v-236h-44zM125 392v266h-99v42h242v-42h-99v-266h-44z" />
    <glyph glyph-name="asterisk" unicode="*" horiz-adv-x="430" 
d="M189 397l10 125l-103 -73l-27 47l116 53l-116 54l27 46l103 -72l-10 125h52l-10 -125l103 72l27 -46l-116 -54l116 -53l-27 -47l-103 73l10 -125h-52z" />
    <glyph glyph-name="dagger" unicode="&#x2020;" horiz-adv-x="410" 
d="M178 238l6 282l-124 -8v55l123 -8l-9 141h62l-9 -141l123 8v-55l-124 8l6 -282h-54z" />
    <glyph glyph-name="daggerdbl" unicode="&#x2021;" horiz-adv-x="430" 
d="M184 0l9 141l-123 -8v55l124 -8l-6 170l6 170l-124 -8v55l123 -8l-9 141h62l-9 -141l123 8v-55l-124 8l6 -170l-6 -170l124 8v-55l-123 8l9 -141h-62z" />
    <glyph glyph-name="dollar" unicode="$" horiz-adv-x="636" 
d="M547 618l-43 -60c-49 40 -98 64 -151 72v-247c152 -34 216 -92 216 -194c0 -108 -88 -181 -213 -189v-98h-64v100c-89 8 -166 43 -236 103l45 60c60 -54 119 -87 194 -96v251c-148 35 -213 89 -213 194v1c0 103 87 179 210 185v58h64v-60c75 -8 132 -35 191 -80zM492 184
c0 59 -29 94 -139 123v-241c86 5 139 52 139 117v1zM159 520c0 -57 26 -94 136 -123v236c-85 -4 -136 -52 -136 -113z" />
    <glyph glyph-name="sterling" unicode="&#xa3;" horiz-adv-x="644" 
d="M67 0v46l84 21v228h-84v69h84v108c0 74 22 137 63 178c38 38 92 60 158 60c106 0 167 -47 214 -108l-61 -48c-39 49 -81 83 -154 83c-41 0 -73 -13 -98 -37c-28 -29 -43 -73 -43 -128v-108h279v-69h-279v-225h355v-70h-518z" />
    <glyph glyph-name="Euro" unicode="&#x20ac;" horiz-adv-x="720" 
d="M666 575l-60 -43c-50 70 -99 109 -184 109c-90 0 -160 -70 -191 -171h257v-62h-271c-2 -19 -3 -38 -3 -57c0 -18 0 -35 2 -51h272v-63h-260c30 -108 106 -178 205 -178c79 0 130 45 178 115l57 -40c-55 -83 -125 -146 -238 -146c-142 0 -248 100 -283 249h-91v63h81
c-2 15 -2 32 -2 49c0 20 1 40 3 59h-82v62h94c37 140 140 242 275 242c118 0 188 -58 241 -137z" />
    <glyph glyph-name="yen" unicode="&#xa5;" horiz-adv-x="686" 
d="M100 266v62h180l-253 372h94l223 -342l225 342h90l-255 -372h182v-62h-205v-88h205v-62h-205v-116h-76v116h-205v62h205v88h-205z" />
    <glyph glyph-name="cent" unicode="&#xa2;" horiz-adv-x="581" 
d="M416 706l-18 -91c50 -13 92 -41 132 -83l-50 -52c-32 32 -63 55 -98 67l-77 -392c7 -1 14 -1 21 -1c66 0 118 33 159 77l48 -45c-52 -59 -115 -101 -211 -101c-9 0 -18 0 -27 1l-18 -92h-65l21 106c-103 37 -175 137 -175 253v2c0 146 115 270 265 270h12l16 81h65z
M136 355c0 -83 45 -154 113 -185l76 386h-4c-104 0 -185 -88 -185 -199v-2z" />
    <glyph glyph-name="baht" unicode="&#xe3f;" horiz-adv-x="635" 
d="M343 779h60l-13 -83c102 -16 168 -78 168 -171c0 -96 -60 -143 -121 -165c83 -25 148 -72 148 -168v-1c0 -121 -98 -191 -244 -191h-59l-17 -118h-59l17 118h-133v700h241zM335 323h-7l-39 -256h54c104 0 168 46 168 128s-62 128 -176 128zM163 383h123l38 250h-161v-250
zM485 513c0 63 -40 106 -110 117l-37 -247c89 3 147 49 147 130zM163 67h74l40 256h-114v-256z" />
    <glyph glyph-name="colonmonetary" unicode="&#x20a1;" horiz-adv-x="605" 
d="M468 779h50l-18 -113c22 -12 41 -26 60 -42l-36 -62c-13 11 -25 22 -39 31l-85 -526c47 9 84 35 124 72l41 -51c-48 -46 -101 -79 -173 -88l-19 -118h-51l18 117c-31 1 -61 6 -89 16l-21 -133h-51l25 155c-93 54 -153 163 -153 309v7c0 194 110 326 261 346l13 80h50
l-12 -77c34 -1 63 -6 89 -15zM260 84c28 -14 60 -21 94 -21l90 554c-27 12 -56 20 -91 20h-3zM125 345c0 -108 37 -188 94 -235l84 521c-104 -24 -178 -126 -178 -278v-8z" />
    <glyph glyph-name="florin" unicode="&#x192;" horiz-adv-x="514" 
d="M93 -5c-22 0 -38 2 -52 4v66c14 -3 27 -4 44 -4c42 0 69 23 78 76l44 236h-98v67h109l23 119c19 100 65 146 156 146c34 0 57 -3 81 -11v-66c-24 6 -48 10 -69 10c-52 0 -78 -26 -90 -90l-20 -108h144v-67h-156l-45 -244c-18 -93 -63 -134 -149 -134z" />
    <glyph glyph-name="naira" unicode="&#x20a6;" horiz-adv-x="825" 
d="M781 227h-99v-227h-91l-142 227h-231v-227h-74v227h-100v56h100v138h-100v56h100v223h98l138 -223h228v223h74v-223h99v-56h-99v-138h99v-56zM217 422v-140h202l-87 140h-115zM410 422l87 -140h111v140h-198zM217 605v-130h82l-81 130h-1zM607 106h1v123h-78z" />
    <glyph glyph-name="peso" unicode="&#x20b1;" horiz-adv-x="724" 
d="M134 0v443h-99v55h99v202h206c148 0 250 -78 261 -202h98v-55h-98c-13 -136 -134 -208 -275 -208h-112v-235h-80zM329 304c110 0 185 56 194 141h-311v-141h117zM212 630v-135h310c-10 89 -84 135 -190 135h-120z" />
    <glyph glyph-name="R_p" horiz-adv-x="1188" 
d="M82 0v700h240c148 0 241 -83 241 -210v-3c0 -109 -70 -178 -164 -204l188 -283h-90l-177 269h-163v-269h-75zM684 -160v680h73v-100c35 59 90 111 173 111c107 0 214 -95 214 -266v-9c0 -171 -106 -267 -214 -267c-83 0 -139 52 -173 108v-257h-73zM915 55
c84 0 154 74 154 200v9c0 124 -72 201 -154 201s-161 -78 -161 -200v-10c0 -122 79 -200 161 -200zM157 336h160c101 0 170 56 170 148v3c0 93 -64 144 -169 144h-161v-295z" />
    <glyph glyph-name="rupee" unicode="&#x20a8;" horiz-adv-x="1081" 
d="M82 0v700h240c148 0 241 -83 241 -210v-3c0 -109 -70 -178 -164 -204l188 -283h-90l-177 269h-163v-269h-75zM157 336h160c101 0 170 56 170 148v3c0 93 -64 144 -169 144h-161v-295zM848 -10c-75 0 -148 29 -204 72l37 55c55 -41 107 -64 170 -64c60 0 107 32 107 81v2
c0 40 -25 62 -121 93c-116 37 -169 75 -169 152v2c0 86 75 144 172 144c64 0 126 -23 177 -57l-32 -58c-47 31 -96 52 -148 52c-59 0 -99 -33 -99 -76v-2c0 -41 30 -63 128 -94c114 -36 163 -75 163 -151v-2c0 -94 -82 -149 -181 -149z" />
    <glyph glyph-name="won" unicode="&#x20a9;" horiz-adv-x="1105" 
d="M1021 700l-64 -226h109v-56h-125l-38 -133h163v-56h-179l-65 -232h-90l-68 232h-223l-67 -232h-91l-66 232h-177v56h162l-38 133h-124v56h108l-63 226h85l59 -226h214l64 228h95l64 -228h214l59 226h82zM495 419l-38 -136h192l-39 136h-115zM241 419l35 -134h115l36 134
h-186zM680 419l38 -134h114l34 134h-186zM329 78h5l41 151h-85zM776 78h4l38 151h-85zM550 614l-40 -140h85l-40 140h-5z" />
    <glyph glyph-name="sheqel" unicode="&#x20aa;" horiz-adv-x="623" 
d="M236 139l-32 203h54l29 -179c11 -65 42 -97 108 -97h91v451h65v-517h-157c-95 0 -143 45 -158 139zM350 353c0 69 -34 98 -103 98h-110v-451h-65v517h182c99 0 150 -44 150 -143v-191h-54v170z" />
    <glyph glyph-name="numbersign" unicode="#" horiz-adv-x="700" 
d="M615 246v-69h-130l-30 -177h-70l30 177h-191l-30 -177h-70l30 177h-109v69h121l36 212h-118v69h130l30 173h70l-30 -173h191l30 173h70l-30 -173h109v-69h-121l-36 -212h118zM273 459l-37 -214h191l36 214h-190z" />
    <glyph glyph-name="paragraph" unicode="&#xb6;" horiz-adv-x="510" 
d="M338 0v264h-11c-158 0 -279 77 -279 217v2c0 136 109 217 264 217h106v-700h-80z" />
    <glyph glyph-name="section" unicode="&#xa7;" horiz-adv-x="632" 
d="M438 226c45 -22 74 -58 74 -101v-2c0 -80 -72 -133 -184 -133c-93 0 -173 38 -229 95l50 48c46 -45 108 -77 181 -77c70 0 103 29 103 66v2c0 37 -40 63 -163 92c-152 36 -208 74 -208 142v2c0 61 54 101 132 114c-45 23 -74 58 -74 101v2c0 80 72 133 184 133
c93 0 173 -38 229 -95l-50 -48c-46 45 -108 77 -181 77c-69 0 -103 -28 -103 -66v-2c0 -37 38 -62 163 -92c152 -36 208 -73 208 -142v-2c0 -60 -54 -101 -132 -114zM387 263c65 0 109 32 109 69v2c0 33 -32 60 -142 87c-49 12 -83 16 -109 16c-65 0 -109 -32 -109 -69v-2
c0 -33 32 -60 142 -87c48 -12 83 -16 109 -16z" />
    <glyph glyph-name="ordfeminine" unicode="&#xaa;" horiz-adv-x="390" 
d="M168 408c-53 0 -107 30 -107 90v2c0 60 51 93 123 93c34 0 58 -5 80 -11v5c0 46 -29 71 -78 71c-31 0 -57 -9 -86 -22l-15 42c34 15 64 25 106 25c40 0 71 -11 93 -32c19 -19 29 -48 29 -84v-173h-49v38c-22 -27 -54 -44 -96 -44zM177 450c47 0 87 28 87 70v24
c-20 6 -44 11 -76 11c-47 0 -75 -22 -75 -53v-2c0 -32 29 -50 64 -50zM58 289v47h260v-47h-260z" />
    <glyph glyph-name="ordmasculine" unicode="&#xba;" horiz-adv-x="390" 
d="M194 407c-84 0 -146 67 -146 147v2c0 81 63 149 148 149c84 0 146 -67 146 -147v-2c0 -81 -63 -149 -148 -149zM51 289v47h288v-47h-288zM196 455c55 0 92 45 92 99v2c0 56 -40 101 -94 101c-55 0 -92 -45 -92 -99v-2c0 -55 40 -101 94 -101z" />
    <glyph glyph-name="degree" unicode="&#xb0;" horiz-adv-x="458" 
d="M229 400c-82 0 -157 71 -157 152v2c0 82 75 152 157 152s157 -70 157 -152v-2c0 -81 -75 -152 -157 -152zM229 452c57 0 99 48 99 100v2c0 52 -42 100 -99 100s-99 -48 -99 -100v-2c0 -52 42 -100 99 -100z" />
    <glyph glyph-name="percent" unicode="%" horiz-adv-x="834" 
d="M210 350c-95 0 -158 83 -158 177v2c0 95 64 179 160 179c94 0 157 -83 157 -177v-2c0 -95 -64 -179 -159 -179zM210 652c-55 0 -91 -55 -91 -121v-2c0 -70 41 -123 93 -123c54 0 91 54 91 121v2c0 70 -42 123 -93 123zM394 365l244 335h71l-270 -367l-243 -333h-72z
M622 -8c-94 0 -157 83 -157 177v2c0 95 64 179 159 179s157 -83 157 -177v-2c0 -95 -63 -179 -159 -179zM624 48c55 0 91 54 91 121v2c0 70 -41 123 -93 123c-54 0 -91 -55 -91 -121v-2c0 -70 41 -123 93 -123z" />
    <glyph glyph-name="perthousand" unicode="&#x2030;" horiz-adv-x="1211" 
d="M212 406c54 0 91 54 91 121v2c0 70 -42 123 -93 123c-55 0 -91 -55 -91 -121v-2c0 -70 41 -123 93 -123zM210 350c-95 0 -158 83 -158 177v2c0 95 64 179 160 179c94 0 157 -83 157 -177v-2c0 -95 -64 -179 -159 -179zM709 700l-270 -367l-243 -333h-72l270 365l244 335
h71zM624 48c55 0 91 54 91 121v2c0 70 -41 123 -93 123c-54 0 -91 -55 -91 -121v-2c0 -70 41 -123 93 -123zM622 -8c-94 0 -157 83 -157 177v2c0 95 64 179 159 179s157 -83 157 -177v-2c0 -95 -63 -179 -159 -179zM1001 48c55 0 91 54 91 121v2c0 70 -41 123 -93 123
c-54 0 -91 -55 -91 -121v-2c0 -70 42 -123 93 -123zM999 -8c-94 0 -157 83 -157 177v2c0 95 64 179 159 179s158 -83 158 -177v-2c0 -95 -64 -179 -160 -179z" />
    <glyph glyph-name="quotedbl" unicode="&#x22;" horiz-adv-x="440" 
d="M260 428l31 272h92v-5l-81 -267h-42zM65 428l30 272h93v-5l-81 -267h-42z" />
    <glyph glyph-name="quotesingle" unicode="'" horiz-adv-x="245" 
d="M65 428l30 272h94v-5l-81 -267h-43z" />
    <glyph glyph-name="plus" unicode="+" horiz-adv-x="625" 
d="M275 110v206h-207v72h207v206h75v-206h207v-72h-207v-206h-75z" />
    <glyph glyph-name="minus" unicode="&#x2212;" horiz-adv-x="625" 
d="M557 315h-489v74h489v-74z" />
    <glyph glyph-name="divide" unicode="&#xf7;" horiz-adv-x="625" 
d="M262 499v104h101v-104h-101zM557 317h-489v70h489v-70zM262 102v103h101v-103h-101z" />
    <glyph glyph-name="equal" unicode="=" horiz-adv-x="625" 
d="M80 432v74h465v-74h-465zM80 198v74h465v-74h-465z" />
    <glyph glyph-name="multiply" unicode="&#xd7;" horiz-adv-x="625" 
d="M486 127l-174 177l-174 -177l-50 50l176 174l-176 174l52 52l174 -177l174 177l50 -50l-177 -174l177 -174z" />
    <glyph glyph-name="less" unicode="&#x3c;" horiz-adv-x="625" 
d="M534 86l-470 233v66l470 233v-77l-386 -188l386 -189v-78z" />
    <glyph glyph-name="greater" unicode="&#x3e;" horiz-adv-x="625" 
d="M92 86v77l385 188l-385 189v78l469 -233v-66z" />
    <glyph glyph-name="plusminus" unicode="&#xb1;" horiz-adv-x="625" 
d="M549 364h-200v-196h-73v196h-199v70h199v196h73v-196h200v-70zM549 0h-472v69h472v-69z" />
    <glyph glyph-name="onehalf" unicode="&#xbd;" horiz-adv-x="825" 
d="M494 0v44l144 126c53 45 77 74 77 112c0 40 -32 68 -74 68s-74 -23 -104 -67l-38 27c34 52 76 87 145 87c72 0 125 -48 125 -111c0 -55 -29 -89 -91 -142l-113 -96h207v-48h-278zM125 0l248 359l228 341h54l-248 -359l-228 -341h-54zM208 313h-52v339l-86 -33l-13 45
l110 42h41v-393z" />
    <glyph glyph-name="onehalf.alt" horiz-adv-x="900" 
d="M344 313h-273v45h115v294l-101 -36l-13 44l124 46h41v-348h107v-45zM569 0v44l144 126c53 45 77 74 77 112c0 40 -32 68 -74 68s-74 -23 -104 -67l-38 27c34 52 76 87 145 87c72 0 125 -48 125 -111c0 -55 -29 -89 -91 -142l-113 -96h207v-48h-278zM205 0l248 359
l228 341h54l-248 -359l-228 -341h-54z" />
    <glyph glyph-name="onethird" unicode="&#x2153;" horiz-adv-x="825" 
d="M632 -10c-64 0 -112 29 -146 70l35 35c31 -37 68 -58 112 -58c45 0 81 29 81 72c0 46 -43 71 -101 71h-33l-10 33l126 126h-188v48h254v-42l-124 -123c72 -6 129 -41 129 -112s-59 -120 -135 -120zM208 313h-52v339l-86 -33l-13 45l110 42h41v-393zM112 0l248 359
l228 341h54l-248 -359l-228 -341h-54z" />
    <glyph glyph-name="onethird.alt" horiz-adv-x="900" 
d="M344 313h-273v45h115v294l-101 -36l-13 44l124 46h41v-348h107v-45zM707 -10c-64 0 -112 29 -146 70l35 35c31 -37 68 -58 112 -58c45 0 81 29 81 72c0 46 -43 71 -101 71h-33l-10 33l126 126h-188v48h254v-42l-124 -123c72 -6 129 -41 129 -112s-59 -120 -135 -120z
M195 0l248 359l228 341h54l-248 -359l-228 -341h-54z" />
    <glyph glyph-name="twothirds" unicode="&#x2154;" horiz-adv-x="900" 
d="M707 -10c-64 0 -112 29 -146 70l35 35c31 -37 68 -58 112 -58c45 0 81 29 81 72c0 46 -43 71 -101 71h-33l-10 33l126 126h-188v48h254v-42l-124 -123c72 -6 129 -41 129 -112s-59 -120 -135 -120zM49 313v44l144 126c53 45 77 74 77 112c0 40 -32 68 -74 68
s-74 -23 -104 -67l-38 27c34 52 76 87 145 87c72 0 125 -48 125 -111c0 -55 -29 -89 -91 -142l-113 -97h207v-47h-278zM185 0l248 359l228 341h54l-248 -359l-228 -341h-54z" />
    <glyph glyph-name="onequarter" unicode="&#xbc;" horiz-adv-x="825" 
d="M725 87v-89h-48v89h-190l-11 45l193 261h56v-263h54v-43h-54zM135 0l248 359l228 341h54l-248 -359l-228 -341h-54zM208 313h-52v339l-86 -33l-13 45l110 42h41v-393zM677 130v201l-148 -201h148z" />
    <glyph glyph-name="onequarter.alt" horiz-adv-x="900" 
d="M800 87v-89h-48v89h-190l-11 45l193 261h56v-263h54v-43h-54zM344 313h-273v45h115v294l-101 -36l-13 44l124 46h41v-348h107v-45zM210 0l248 359l228 341h54l-248 -359l-228 -341h-54zM752 130v201l-148 -201h148z" />
    <glyph glyph-name="threequarters" unicode="&#xbe;" horiz-adv-x="900" 
d="M800 87v-89h-48v89h-190l-11 45l193 261h56v-263h54v-43h-54zM197 303c-64 0 -112 29 -146 70l35 35c31 -37 68 -58 112 -58c45 0 81 29 81 72c0 46 -43 71 -101 71h-33l-10 33l126 126h-188v48h254v-42l-124 -123c72 -6 129 -41 129 -112s-59 -120 -135 -120zM205 0
l248 359l228 341h54l-248 -359l-228 -341h-54zM752 130v201l-148 -201h148z" />
    <glyph glyph-name="onefifth" unicode="&#x2155;" horiz-adv-x="825" 
d="M631 -10c-57 0 -105 27 -143 65l35 37c33 -35 69 -55 110 -55c55 0 91 35 91 80c0 46 -38 74 -91 74c-32 0 -60 -8 -85 -20l-35 21l14 195h231v-50h-188l-8 -114c22 10 49 15 78 15c76 0 137 -44 137 -118c0 -77 -63 -130 -146 -130zM208 313h-52v339l-86 -33l-13 45
l110 42h41v-393zM117 0l248 359l228 341h54l-248 -359l-228 -341h-54z" />
    <glyph glyph-name="onefifth.alt" horiz-adv-x="900" 
d="M344 313h-273v45h115v294l-101 -36l-13 44l124 46h41v-348h107v-45zM706 -10c-57 0 -105 27 -143 65l35 37c33 -35 69 -55 110 -55c55 0 91 35 91 80c0 46 -38 74 -91 74c-32 0 -60 -8 -85 -20l-35 21l14 195h231v-50h-188l-8 -114c22 10 49 15 78 15
c76 0 137 -44 137 -118c0 -77 -63 -130 -146 -130zM200 0l248 359l228 341h54l-248 -359l-228 -341h-54z" />
    <glyph glyph-name="twofifths" unicode="&#x2156;" horiz-adv-x="900" 
d="M706 -10c-57 0 -105 27 -143 65l35 37c33 -35 69 -55 110 -55c55 0 91 35 91 80c0 46 -38 74 -91 74c-32 0 -60 -8 -85 -20l-35 21l14 195h231v-50h-188l-8 -114c22 10 49 15 78 15c76 0 137 -44 137 -118c0 -77 -63 -130 -146 -130zM195 0l248 359l228 341h54l-248 -359
l-228 -341h-54zM49 313v44l144 126c53 45 77 74 77 112c0 40 -32 68 -74 68s-74 -23 -104 -67l-38 27c34 52 76 87 145 87c72 0 125 -48 125 -111c0 -55 -29 -89 -91 -142l-113 -97h207v-47h-278z" />
    <glyph glyph-name="threefifths" unicode="&#x2157;" horiz-adv-x="900" 
d="M706 -10c-57 0 -105 27 -143 65l35 37c33 -35 69 -55 110 -55c55 0 91 35 91 80c0 46 -38 74 -91 74c-32 0 -60 -8 -85 -20l-35 21l14 195h231v-50h-188l-8 -114c22 10 49 15 78 15c76 0 137 -44 137 -118c0 -77 -63 -130 -146 -130zM180 0l248 359l228 341h54l-248 -359
l-228 -341h-54zM187 303c-64 0 -112 29 -146 70l35 35c31 -37 68 -58 112 -58c45 0 81 29 81 72c0 46 -43 71 -101 71h-33l-10 33l126 126h-188v48h254v-42l-124 -123c72 -6 129 -41 129 -112s-59 -120 -135 -120z" />
    <glyph glyph-name="fourfifths" unicode="&#x2158;" horiz-adv-x="900" 
d="M290 399v-88h-48v88h-190l-11 46l193 260h56v-262h54v-44h-54zM706 -10c-57 0 -105 27 -143 65l35 37c33 -35 69 -55 110 -55c55 0 91 35 91 80c0 46 -38 74 -91 74c-32 0 -60 -8 -85 -20l-35 21l14 195h231v-50h-188l-8 -114c22 10 49 15 78 15c76 0 137 -44 137 -118
c0 -77 -63 -130 -146 -130zM195 0l248 359l228 341h54l-248 -359l-228 -341h-54zM242 443v201l-148 -201h148z" />
    <glyph glyph-name="onesixth" unicode="&#x2159;" horiz-adv-x="825" 
d="M634 -9c-40 0 -75 15 -97 38c-27 27 -48 67 -48 150v2c0 128 63 216 160 216c50 0 80 -16 111 -45l-30 -39c-23 23 -49 37 -83 37c-57 0 -104 -62 -105 -148c23 25 51 45 102 45c68 0 126 -46 126 -124c0 -76 -59 -132 -136 -132zM125 0l248 359l228 341h54l-248 -359
l-228 -341h-54zM208 313h-52v339l-86 -33l-13 45l110 42h41v-393zM633 36c50 0 87 34 87 84c0 51 -34 83 -84 83c-51 0 -89 -34 -89 -83s39 -84 86 -84z" />
    <glyph glyph-name="onesixth.alt" horiz-adv-x="900" 
d="M709 -9c-40 0 -75 15 -97 38c-27 27 -48 67 -48 150v2c0 128 63 216 160 216c50 0 80 -16 111 -45l-30 -39c-23 23 -49 37 -83 37c-57 0 -104 -62 -105 -148c23 25 51 45 102 45c68 0 126 -46 126 -124c0 -76 -59 -132 -136 -132zM344 313h-273v45h115v294l-101 -36
l-13 44l124 46h41v-348h107v-45zM200 0l248 359l228 341h54l-248 -359l-228 -341h-54zM708 36c50 0 87 34 87 84c0 51 -34 83 -84 83c-51 0 -89 -34 -89 -83s39 -84 86 -84z" />
    <glyph glyph-name="fivesixths" unicode="&#x215a;" horiz-adv-x="900" 
d="M709 -9c-40 0 -75 15 -97 38c-27 27 -48 67 -48 150v2c0 128 63 216 160 216c50 0 80 -16 111 -45l-30 -39c-23 23 -49 37 -83 37c-57 0 -104 -62 -105 -148c23 25 51 45 102 45c68 0 126 -46 126 -124c0 -76 -59 -132 -136 -132zM186 303c-57 0 -105 27 -143 65l35 37
c33 -35 69 -55 110 -55c55 0 91 35 91 80c0 46 -38 74 -91 74c-32 0 -60 -8 -85 -20l-35 21l14 195h231v-50h-188l-8 -114c22 10 49 15 78 15c76 0 137 -44 137 -118c0 -78 -63 -130 -146 -130zM185 0l248 359l228 341h54l-248 -359l-228 -341h-54zM708 36c50 0 87 34 87 84
c0 51 -34 83 -84 83c-51 0 -89 -34 -89 -83s39 -84 86 -84z" />
    <glyph glyph-name="oneeighth" unicode="&#x215b;" horiz-adv-x="825" 
d="M635 -10c-83 0 -143 46 -143 113c0 47 30 79 72 97c-34 17 -61 46 -61 90c0 63 60 107 133 107s132 -45 132 -107c0 -44 -26 -73 -60 -90c41 -17 71 -50 71 -95c0 -70 -61 -115 -144 -115zM636 353c-49 0 -83 -27 -83 -66c0 -40 35 -68 83 -68c47 0 82 28 82 68
c0 39 -34 66 -82 66zM636 177c-56 0 -94 -30 -94 -72s37 -71 94 -71c56 0 93 29 93 71s-38 72 -93 72zM208 313h-52v339l-86 -33l-13 45l110 42h41v-393zM123 0l248 359l228 341h54l-248 -359l-228 -341h-54z" />
    <glyph glyph-name="oneeighth.alt" horiz-adv-x="900" 
d="M344 313h-273v45h115v294l-101 -36l-13 44l124 46h41v-348h107v-45zM710 -10c-83 0 -143 46 -143 113c0 47 30 79 72 97c-34 17 -61 46 -61 90c0 63 60 107 133 107s132 -45 132 -107c0 -44 -26 -73 -60 -90c41 -17 71 -50 71 -95c0 -70 -61 -115 -144 -115zM711 353
c-49 0 -83 -27 -83 -66c0 -40 35 -68 83 -68c47 0 82 28 82 68c0 39 -34 66 -82 66zM711 177c-56 0 -94 -30 -94 -72s37 -71 94 -71c56 0 93 29 93 71s-38 72 -93 72zM200 0l248 359l228 341h54l-248 -359l-228 -341h-54z" />
    <glyph glyph-name="threeeighths" unicode="&#x215c;" horiz-adv-x="900" 
d="M710 -10c-83 0 -143 46 -143 113c0 47 30 79 72 97c-34 17 -61 46 -61 90c0 63 60 107 133 107s132 -45 132 -107c0 -44 -26 -73 -60 -90c41 -17 71 -50 71 -95c0 -70 -61 -115 -144 -115zM711 353c-49 0 -83 -27 -83 -66c0 -40 35 -68 83 -68c47 0 82 28 82 68
c0 39 -34 66 -82 66zM711 177c-56 0 -94 -30 -94 -72s37 -71 94 -71c56 0 93 29 93 71s-38 72 -93 72zM185 0l248 359l228 341h54l-248 -359l-228 -341h-54zM187 303c-64 0 -112 29 -146 70l35 35c31 -37 68 -58 112 -58c45 0 81 29 81 72c0 46 -43 71 -101 71h-33l-10 33
l126 126h-188v48h254v-42l-124 -123c72 -6 129 -41 129 -112s-59 -120 -135 -120z" />
    <glyph glyph-name="fiveeighths" unicode="&#x215d;" horiz-adv-x="900" 
d="M710 -10c-83 0 -143 46 -143 113c0 47 30 79 72 97c-34 17 -61 46 -61 90c0 63 60 107 133 107s132 -45 132 -107c0 -44 -26 -73 -60 -90c41 -17 71 -50 71 -95c0 -70 -61 -115 -144 -115zM711 353c-49 0 -83 -27 -83 -66c0 -40 35 -68 83 -68c47 0 82 28 82 68
c0 39 -34 66 -82 66zM711 177c-56 0 -94 -30 -94 -72s37 -71 94 -71c56 0 93 29 93 71s-38 72 -93 72zM185 0l248 359l228 341h54l-248 -359l-228 -341h-54zM186 303c-57 0 -105 27 -143 65l35 37c33 -35 69 -55 110 -55c55 0 91 35 91 80c0 46 -38 74 -91 74
c-32 0 -60 -8 -85 -20l-35 21l14 195h231v-50h-188l-8 -114c22 10 49 15 78 15c76 0 137 -44 137 -118c0 -78 -63 -130 -146 -130z" />
    <glyph glyph-name="seveneighths" unicode="&#x215e;" horiz-adv-x="900" 
d="M710 -10c-83 0 -143 46 -143 113c0 47 30 79 72 97c-34 17 -61 46 -61 90c0 63 60 107 133 107s132 -45 132 -107c0 -44 -26 -73 -60 -90c41 -17 71 -50 71 -95c0 -70 -61 -115 -144 -115zM711 353c-49 0 -83 -27 -83 -66c0 -40 35 -68 83 -68c47 0 82 28 82 68
c0 39 -34 66 -82 66zM711 177c-56 0 -94 -30 -94 -72s37 -71 94 -71c56 0 93 29 93 71s-38 72 -93 72zM163 311h-59l173 339h-209v50h269v-40zM155 0l248 359l228 341h54l-248 -359l-228 -341h-54z" />
    <glyph glyph-name="zero.sup" unicode="&#x2070;" 
d="M199 414c-88 0 -146 84 -146 201v3c0 118 59 203 147 203c87 0 147 -83 147 -201v-3c0 -118 -61 -203 -148 -203zM199 773c-58 0 -93 -64 -93 -154v-3c0 -90 36 -154 94 -154s94 64 94 154v3c0 90 -37 154 -95 154z" />
    <glyph glyph-name="one.sup" unicode="&#xb9;" horiz-adv-x="325" 
d="M211 424h-52v339l-86 -33l-13 45l110 43h41v-394z" />
    <glyph glyph-name="one.sup_alt" 
d="M349 424h-273v45h115v294l-101 -36l-13 45l124 46h41v-349h107v-45z" />
    <glyph glyph-name="two.sup" unicode="&#xb2;" 
d="M59 424v44l144 126c53 45 77 74 77 112c0 40 -32 68 -74 68s-74 -23 -104 -67l-38 27c34 52 76 87 145 87c72 0 125 -48 125 -111c0 -55 -29 -89 -91 -142l-113 -96h207v-48h-278z" />
    <glyph glyph-name="three.sup" unicode="&#xb3;" 
d="M197 414c-64 0 -112 29 -146 70l35 35c31 -37 68 -58 112 -58c45 0 81 29 81 72c0 46 -43 71 -101 71h-33l-10 33l126 126h-188v48h254v-42l-124 -123c72 -6 129 -41 129 -112s-59 -120 -135 -120z" />
    <glyph glyph-name="four.sup" unicode="&#x2074;" 
d="M300 511v-89h-48v89h-190l-11 45l193 261h56v-263h54v-43h-54zM252 554v201l-148 -201h148z" />
    <glyph glyph-name="five.sup" unicode="&#x2075;" 
d="M196 414c-57 0 -105 27 -143 65l35 37c33 -35 69 -55 110 -55c55 0 91 35 91 80c0 46 -38 74 -91 74c-32 0 -60 -8 -85 -20l-35 21l14 195h231v-50h-188l-8 -114c22 10 49 15 78 15c76 0 137 -44 137 -118c0 -77 -63 -130 -146 -130z" />
    <glyph glyph-name="six.sup" unicode="&#x2076;" 
d="M199 415c-40 0 -75 15 -97 38c-27 27 -48 67 -48 150v2c0 128 63 216 160 216c50 0 80 -16 111 -45l-30 -39c-23 23 -49 37 -83 37c-57 0 -104 -62 -105 -148c23 25 51 45 102 45c68 0 126 -46 126 -124c0 -76 -59 -132 -136 -132zM198 460c50 0 87 34 87 84
c0 51 -34 83 -84 83c-51 0 -89 -34 -89 -83s39 -84 86 -84z" />
    <glyph glyph-name="seven.sup" unicode="&#x2077;" 
d="M163 422h-59l173 339h-209v50h269v-39z" />
    <glyph glyph-name="eight.sup" unicode="&#x2078;" 
d="M200 414c-83 0 -143 46 -143 113c0 47 30 79 72 97c-34 17 -61 46 -61 90c0 63 60 107 133 107s132 -45 132 -107c0 -44 -26 -73 -60 -90c41 -17 71 -50 71 -95c0 -70 -61 -115 -144 -115zM201 777c-49 0 -83 -27 -83 -66c0 -40 35 -68 83 -68c47 0 82 28 82 68
c0 39 -34 66 -82 66zM201 601c-56 0 -94 -30 -94 -72s37 -71 94 -71c56 0 93 29 93 71s-38 72 -93 72z" />
    <glyph glyph-name="nine.sup" unicode="&#x2079;" 
d="M201 820c40 0 75 -15 97 -37c27 -28 48 -68 48 -151v-2c0 -131 -63 -216 -160 -216c-50 0 -85 18 -116 48l29 38c25 -24 51 -39 89 -39c57 0 104 58 105 144c-23 -25 -51 -45 -101 -45c-69 0 -127 46 -127 126c0 77 59 134 136 134zM199 604c51 0 89 34 89 85
s-39 86 -86 86c-50 0 -87 -35 -87 -86c0 -52 34 -85 84 -85z" />
    <glyph glyph-name="zero.inf" unicode="&#x2080;" 
d="M199 -142c-88 0 -146 84 -146 201v3c0 118 59 203 147 203c87 0 147 -83 147 -201v-3c0 -118 -61 -203 -148 -203zM199 217c-58 0 -93 -64 -93 -154v-3c0 -90 36 -154 94 -154s94 64 94 154v3c0 90 -37 154 -95 154z" />
    <glyph glyph-name="one.inf" unicode="&#x2081;" horiz-adv-x="325" 
d="M211 -132h-52v339l-86 -33l-13 45l110 43h41v-394z" />
    <glyph glyph-name="one.inf_alt" 
d="M349 -132h-273v45h115v294l-101 -36l-13 45l124 46h41v-349h107v-45z" />
    <glyph glyph-name="two.inf" unicode="&#x2082;" 
d="M59 -132v44l144 126c53 45 77 74 77 112c0 40 -32 68 -74 68s-74 -23 -104 -67l-38 27c34 52 76 87 145 87c72 0 125 -48 125 -111c0 -55 -29 -89 -91 -142l-113 -96h207v-48h-278z" />
    <glyph glyph-name="three.inf" unicode="&#x2083;" 
d="M197 -142c-64 0 -112 29 -146 70l35 35c31 -37 68 -58 112 -58c45 0 81 29 81 72c0 46 -43 71 -101 71h-33l-10 33l126 126h-188v48h254v-42l-124 -123c72 -6 129 -41 129 -112s-59 -120 -135 -120z" />
    <glyph glyph-name="four.inf" unicode="&#x2084;" 
d="M300 -45v-89h-48v89h-190l-11 45l193 261h56v-263h54v-43h-54zM252 -2v201l-148 -201h148z" />
    <glyph glyph-name="five.inf" unicode="&#x2085;" 
d="M196 -142c-57 0 -105 27 -143 65l35 37c33 -35 69 -55 110 -55c55 0 91 35 91 80c0 46 -38 74 -91 74c-32 0 -60 -8 -85 -20l-35 21l14 195h231v-50h-188l-8 -114c22 10 49 15 78 15c76 0 137 -44 137 -118c0 -77 -63 -130 -146 -130z" />
    <glyph glyph-name="six.inf" unicode="&#x2086;" 
d="M199 -141c-40 0 -75 15 -97 38c-27 27 -48 67 -48 150v2c0 128 63 216 160 216c50 0 80 -16 111 -45l-30 -39c-23 23 -49 37 -83 37c-57 0 -104 -62 -105 -148c23 25 51 45 102 45c68 0 126 -46 126 -124c0 -76 -59 -132 -136 -132zM198 -96c50 0 87 34 87 84
c0 51 -34 83 -84 83c-51 0 -89 -34 -89 -83s39 -84 86 -84z" />
    <glyph glyph-name="seven.inf" unicode="&#x2087;" 
d="M163 -134h-59l173 339h-209v50h269v-39z" />
    <glyph glyph-name="eight.inf" unicode="&#x2088;" 
d="M200 -142c-83 0 -143 46 -143 113c0 47 30 79 72 97c-34 17 -61 46 -61 90c0 63 60 107 133 107s132 -45 132 -107c0 -44 -26 -73 -60 -90c41 -17 71 -50 71 -95c0 -70 -61 -115 -144 -115zM201 221c-49 0 -83 -27 -83 -66c0 -40 35 -68 83 -68c47 0 82 28 82 68
c0 39 -34 66 -82 66zM201 45c-56 0 -94 -30 -94 -72s37 -71 94 -71c56 0 93 29 93 71s-38 72 -93 72z" />
    <glyph glyph-name="nine.inf" unicode="&#x2089;" 
d="M201 264c40 0 75 -15 97 -37c27 -28 48 -68 48 -151v-2c0 -131 -63 -216 -160 -216c-50 0 -85 18 -116 48l29 38c25 -24 51 -39 89 -39c57 0 104 58 105 144c-23 -25 -51 -45 -101 -45c-69 0 -127 46 -127 126c0 77 59 134 136 134zM199 48c51 0 89 34 89 85
s-39 86 -86 86c-50 0 -87 -35 -87 -86c0 -52 34 -85 84 -85z" />
    <glyph glyph-name="zero.tab" horiz-adv-x="600" 
d="M299 -12c-143 0 -247 134 -247 357v8c0 223 105 359 249 359c142 0 247 -134 247 -357v-8c0 -223 -106 -359 -249 -359zM300 643c-97 0 -170 -103 -170 -288v-8c0 -185 72 -290 170 -290c97 0 170 103 170 288v8c0 185 -72 290 -170 290z" />
    <glyph glyph-name="one.tab" horiz-adv-x="600" 
d="M561 0h-475v69h209v553l-186 -65l-20 66l226 82h56v-636h190v-69z" />
    <glyph glyph-name="two.tab" horiz-adv-x="600" 
d="M535 0h-484v61l251 226c106 96 145 150 145 219c0 82 -64 133 -141 133c-81 0 -134 -43 -188 -124l-57 43c63 94 129 152 249 152c129 0 218 -83 218 -197v-2c0 -97 -51 -160 -161 -259l-201 -180h369v-72z" />
    <glyph glyph-name="three.tab" horiz-adv-x="600" 
d="M295 -12c-112 0 -191 48 -248 117l54 54c53 -62 112 -100 196 -100c83 0 159 54 159 141v2c0 83 -71 128 -179 128h-59l-21 50l230 249h-348v71h446v-66l-227 -241c129 -3 238 -61 238 -188v-2c0 -129 -111 -215 -241 -215z" />
    <glyph glyph-name="three.tab_alt" horiz-adv-x="600" 
d="M297 -12c-106 0 -197 51 -253 125l56 47c48 -64 115 -103 200 -103c96 0 163 53 163 134c0 82 -68 129 -187 129h-70v67h77c97 0 167 48 167 131c0 74 -58 125 -151 125c-82 0 -138 -38 -186 -101l-55 42c53 75 132 128 243 128c136 0 228 -78 228 -188
c0 -91 -62 -143 -125 -167c78 -26 138 -75 138 -168c0 -114 -100 -201 -245 -201z" />
    <glyph glyph-name="four.tab" horiz-adv-x="600" 
d="M397 0v163h-345l-18 69l344 472h91v-477h99v-64h-99v-163h-72zM397 227v392l-286 -392h286z" />
    <glyph glyph-name="five.tab" horiz-adv-x="600" 
d="M295 -12c-106 0 -185 47 -246 108l51 56c58 -59 121 -94 197 -94c99 0 168 64 168 154v2c0 87 -67 147 -169 147c-63 0 -112 -18 -152 -38l-53 34l24 343h398v-73h-332l-17 -227c41 18 85 31 142 31c133 0 239 -81 239 -214v-2c0 -135 -109 -227 -250 -227z" />
    <glyph glyph-name="six.tab" horiz-adv-x="600" 
d="M323 444c121 0 224 -81 224 -219v-2c0 -136 -105 -235 -236 -235c-70 0 -131 27 -169 65c-55 54 -85 124 -85 273v4c0 223 102 382 280 382c76 0 133 -28 183 -71l-41 -61c-40 35 -86 62 -145 62c-135 0 -199 -145 -199 -291v-8c41 65 105 101 188 101zM308 55
c99 0 162 73 162 166c0 96 -66 157 -157 157c-106 0 -167 -73 -167 -159c0 -97 71 -164 162 -164z" />
    <glyph glyph-name="seven.tab" horiz-adv-x="600" 
d="M454 627h-383v73h472v-60l-314 -640h-87z" />
    <glyph glyph-name="eight.tab" horiz-adv-x="600" 
d="M300 -11c-143 0 -250 81 -250 198v3c0 83 57 142 138 173c-64 29 -117 80 -117 161v2c0 109 106 185 229 185c122 0 228 -76 228 -185v-2c0 -80 -53 -132 -116 -161c80 -31 138 -90 138 -172v-3c0 -119 -108 -199 -250 -199zM300 55c108 0 172 61 172 134v2
c0 79 -76 135 -172 135s-172 -56 -172 -135v-2c0 -73 64 -134 172 -134zM300 390c84 0 151 53 151 129v2c0 71 -65 124 -151 124c-87 0 -151 -52 -151 -123v-3c0 -75 67 -129 151 -129z" />
    <glyph glyph-name="nine.tab" horiz-adv-x="600" 
d="M276 250c-120 0 -223 81 -223 222v2c0 139 105 238 236 238c70 0 131 -27 169 -65c55 -54 85 -124 85 -273v-4c0 -223 -102 -382 -280 -382c-77 0 -140 30 -193 76l41 61c49 -41 96 -67 155 -67c135 0 199 151 199 293c-42 -66 -106 -101 -189 -101zM292 645
c-99 0 -162 -74 -162 -169c0 -98 66 -160 157 -160c105 0 167 74 167 162c0 99 -71 167 -162 167z" />
    <glyph glyph-name="period.tab" horiz-adv-x="300" 
d="M98 0v114h104v-114h-104z" />
    <glyph glyph-name="comma.tab" horiz-adv-x="300" 
d="M85 -122l-12 35c50 18 71 44 67 87h-42v114h104v-99c0 -81 -41 -120 -117 -137z" />
    <glyph glyph-name="colon.tab" horiz-adv-x="300" 
d="M98 404v113h104v-113h-104zM98 0v113h104v-113h-104z" />
    <glyph glyph-name="semicolon.tab" horiz-adv-x="300" 
d="M98 404v113h104v-113h-104zM85 -122l-12 35c50 18 71 44 67 87h-42v113h104v-98c0 -81 -41 -120 -117 -137z" />
    <glyph glyph-name="twodotleader.tab" horiz-adv-x="600" 
d="M400 0v107h100v-107h-100zM100 0v107h100v-107h-100z" />
    <glyph glyph-name="periodcentered.tab" horiz-adv-x="300" 
d="M98 244v114h104v-114h-104z" />
    <glyph glyph-name="slash.tab" horiz-adv-x="600" 
d="M580 798l-503 -926h-72l504 926h71z" />
    <glyph glyph-name="bar.tab" horiz-adv-x="300" 
d="M118 -128v926h64v-926h-64z" />
    <glyph glyph-name="underscore.tab" horiz-adv-x="600" 
d="M-2 -160v63h604v-63h-604z" />
    <glyph glyph-name="dollar.tab" horiz-adv-x="600" 
d="M392 779l-11 -87c54 -11 102 -35 147 -68l-37 -59c-39 30 -79 51 -121 62l-30 -246c140 -34 204 -92 204 -192c0 -112 -96 -190 -233 -190h-14l-15 -117h-60l15 123c-74 14 -137 47 -189 93l40 57c48 -43 99 -73 160 -86l31 254c-139 34 -202 92 -202 192
c0 111 93 186 221 186c8 0 16 -1 24 -1l10 79h60zM472 184c0 62 -34 101 -141 127l-30 -248h14c97 0 157 52 157 121zM149 520c0 -56 29 -99 138 -128l30 244c-8 1 -15 1 -23 1c-89 0 -145 -48 -145 -117z" />
    <glyph glyph-name="sterling.tab" horiz-adv-x="600" 
d="M140 366v110c0 73 21 133 63 175c35 36 85 59 153 59c88 0 149 -41 192 -94l-54 -51c-36 43 -80 74 -138 74c-43 0 -73 -14 -97 -38c-27 -27 -41 -69 -41 -123v-112h258v-67h-258v-230h331v-69h-487v44l78 21v234h-79v67h79z" />
    <glyph glyph-name="Euro.tab" horiz-adv-x="600" 
d="M38 408v58h82c30 141 121 246 252 246c88 0 145 -42 187 -96l-50 -50c-38 49 -80 79 -138 79c-88 0 -150 -73 -175 -179h225v-58h-234c-2 -18 -3 -35 -3 -54v-6c0 -17 1 -34 2 -50h235v-58h-226c24 -108 85 -185 174 -185c65 0 105 32 145 82l48 -44
c-45 -60 -105 -105 -196 -105c-126 0 -219 98 -247 252h-81v58h72c-1 15 -1 32 -1 48v8c0 18 0 36 2 54h-73z" />
    <glyph glyph-name="yen.tab" horiz-adv-x="600" 
d="M87 168h176v100h-176v57h159l-226 375h87l194 -337l195 337h84l-228 -375h161v-57h-176v-100h176v-57h-176v-111h-74v111h-176v57z" />
    <glyph glyph-name="cent.tab" horiz-adv-x="600" 
d="M424 706l-19 -92c57 -15 99 -47 135 -87l-47 -49c-32 33 -63 60 -105 72l-80 -399h16c74 0 130 37 173 84l46 -43c-53 -59 -126 -105 -223 -105c-8 0 -15 0 -23 1l-18 -94h-64l21 106c-105 34 -177 131 -177 250v2c0 146 115 271 269 271h14l18 83h64zM133 350
c0 -90 47 -160 120 -187l78 396h-4c-112 0 -194 -91 -194 -207v-2z" />
    <glyph glyph-name="numbersign.tab" horiz-adv-x="600" 
d="M33 244h102l31 216h-101v65h110l25 175h64l-26 -175h173l25 175h63l-25 -175h93v-65h-103l-30 -216h101v-65h-111l-25 -179h-63l25 179h-172l-25 -179h-63l25 179h-93v65zM229 461l-31 -218h173l31 218h-173z" />
    <glyph glyph-name="paragraph.tab" horiz-adv-x="600" 
d="M407 0v264h-66c-158 0 -273 78 -273 216c0 139 111 220 275 220h145v-700h-81z" />
    <glyph glyph-name="section.tab" horiz-adv-x="600" 
d="M311 -10c-85 0 -163 33 -215 85l44 51c45 -42 104 -73 174 -73c61 0 94 29 94 65c0 41 -38 68 -140 96c-159 43 -212 81 -212 150c0 60 52 102 133 111c-45 25 -72 58 -72 104c0 76 72 131 172 131c85 0 163 -33 215 -85l-44 -51c-45 42 -104 73 -174 73
c-61 0 -94 -29 -94 -65c0 -41 38 -68 140 -96c159 -43 212 -81 212 -150c0 -60 -52 -102 -133 -111c45 -25 72 -58 72 -104c0 -76 -72 -131 -172 -131zM230 439c-64 1 -102 -30 -102 -67c0 -39 32 -63 126 -89c66 -18 86 -22 116 -22c64 -1 102 30 102 67
c0 39 -31 63 -126 89c-66 18 -89 21 -116 22z" />
    <glyph glyph-name="degree.tab" horiz-adv-x="600" 
d="M299 309c-110 0 -202 89 -202 199s94 200 204 200s202 -90 202 -200s-94 -199 -204 -199zM301 363c83 0 143 64 143 145c0 82 -62 146 -145 146s-143 -64 -143 -146c0 -81 62 -145 145 -145z" />
    <glyph glyph-name="percent.tab" horiz-adv-x="600" 
d="M448 340c71 0 118 -72 118 -170v-6c0 -98 -47 -171 -118 -171s-118 71 -118 170v5c0 99 47 172 118 172zM152 707c71 0 118 -71 118 -170v-5c0 -99 -47 -172 -118 -172s-118 72 -118 170v6c0 98 47 171 118 171zM458 700h52l-193 -359l-175 -341h-52l193 359zM448 291
c-43 0 -65 -51 -65 -120v-10c0 -68 22 -120 65 -120c42 0 65 52 65 120v10c0 69 -23 120 -65 120zM152 659c-42 0 -65 -52 -65 -120v-10c0 -69 23 -120 65 -120c43 0 65 51 65 120v10c0 68 -22 120 -65 120z" />
    <glyph glyph-name="quotedbl.tab" horiz-adv-x="600" 
d="M344 428l58 272h94v-5l-109 -267h-43zM125 428l57 272h94v-5l-109 -267h-42z" />
    <glyph glyph-name="quotesingle.tab" horiz-adv-x="300" 
d="M84 428l58 272h94v-5l-108 -267h-44z" />
    <glyph glyph-name="plus.tab" horiz-adv-x="600" 
d="M535 317h-199l1 -203h-74l1 203h-199v70h199l-1 203h74l-1 -203h199v-70z" />
    <glyph glyph-name="minus.tab" horiz-adv-x="600" 
d="M535 315h-470v74h470v-74z" />
    <glyph glyph-name="divide.tab" horiz-adv-x="600" 
d="M250 499v104h100v-104h-100zM535 317h-470v70h470v-70zM250 102v103h100v-103h-100z" />
    <glyph glyph-name="equal.tab" horiz-adv-x="600" 
d="M518 431h-436v72h436v-72zM518 201h-436v72h436v-72z" />
    <glyph glyph-name="multiply.tab" horiz-adv-x="600" 
d="M470 130l-171 174l-171 -174l-50 50l174 171l-174 171l52 52l171 -174l171 174l50 -50l-174 -171l174 -171z" />
    <glyph glyph-name="less.tab" horiz-adv-x="600" 
d="M509 90l-443 230v65l443 229v-76l-365 -185l365 -187v-76z" />
    <glyph glyph-name="greater.tab" horiz-adv-x="600" 
d="M534 320l-443 -230v76l365 185l-365 187v76l443 -229v-65z" />
    <glyph glyph-name="plusminus.tab" horiz-adv-x="600" 
d="M535 364h-199l1 -195h-74l1 195h-199v70h199l-1 195h74l-1 -195h199v-70zM535 0h-470v69h470v-69z" />
    <glyph glyph-name="space" unicode=" " horiz-adv-x="300" 
 />
    <glyph glyph-name="uni00A0" unicode="&#xa0;" horiz-adv-x="300" 
 />
    <glyph glyph-name="emspace" unicode="&#x2003;" horiz-adv-x="1000" 
 />
    <glyph glyph-name="enspace" unicode="&#x2002;" horiz-adv-x="500" 
 />
    <glyph glyph-name="threeperemspace" unicode="&#x2004;" horiz-adv-x="333" 
 />
    <glyph glyph-name="fourperemspace" unicode="&#x2005;" horiz-adv-x="250" 
 />
    <glyph glyph-name="thinspace" unicode="&#x2009;" horiz-adv-x="133" 
 />
    <glyph glyph-name="hairspace" unicode="&#x200a;" horiz-adv-x="75" 
 />
    <glyph glyph-name="space.tab" horiz-adv-x="300" 
 />
    <glyph glyph-name="figurespace" unicode="&#x2007;" horiz-adv-x="600" 
 />
    <glyph glyph-name="NUL" horiz-adv-x="0" 
 />
    <glyph glyph-name="asciicircum" unicode="^" horiz-adv-x="500" 
d="M65 493l155 209h60l155 -209h-68l-118 154l-118 -154h-66z" />
    <glyph glyph-name="asciitilde" unicode="~" horiz-adv-x="474" 
d="M306 246c-23 0 -47 10 -72 21c-23 10 -46 20 -62 20c-26 0 -37 -13 -52 -50l-47 13c20 76 47 106 95 106c23 0 47 -10 72 -21c22 -10 45 -20 62 -20c26 0 37 14 52 50l46 -13c-20 -76 -46 -106 -94 -106z" />
    <glyph glyph-name="hfjslug" horiz-adv-x="694" 
d="M644 -200h-208l-8 14h-163l-8 -14h-207v303c18 0 32 14 32 32c0 17 -14 32 -32 32v554h100l30 79h334l29 -79h101v-921zM400 563v-172h15v78h38v14h-38v66h43v14h-58zM184 563v-172h15v79h47v-79h15v172h-15v-79h-47v79h-15zM460 394c5 -2 14 -4 21 -4c20 0 31 11 31 36
v137h-16v-137c0 -16 -5 -22 -16 -22c-6 0 -15 3 -20 5v-15zM371 465l-13 3c-2 -9 -5 -21 -8 -30h-1l-16 31c13 12 23 26 23 42c0 17 -9 31 -27 31c-17 0 -28 -14 -28 -31c0 -15 6 -24 14 -39c-15 -12 -23 -28 -23 -47c0 -22 12 -37 29 -37c13 0 23 9 29 24h1l12 -24l12 6
l-17 32c5 12 9 25 13 39zM523 323v-46h8v12l8 8l15 -20h10l-20 26l18 20h-10l-20 -24h-1v24h-8zM488 292l10 -15h9l-12 17c5 2 10 6 10 14c0 9 -7 15 -17 15h-20v-46h8v15h12zM426 276c14 0 24 11 24 24c0 12 -10 24 -24 24s-24 -12 -24 -24c0 -13 10 -24 24 -24zM370 301
l-13 22h-9l18 -29v-17h8v17l18 29h-9zM193 323v-46h34v7h-26v13h23v7h-23v12h26v7h-34zM132 323v-46h8v32l25 -32h7v46h-8v-32l-25 32h-7zM241 323l14 -47h8l11 34h1l11 -34h8l14 47h-8l-10 -35h-1l-11 35h-7l-11 -35h-1l-10 35h-8zM327 479c-7 13 -12 22 -12 32
c0 11 6 19 14 19s13 -8 13 -19c0 -12 -5 -21 -15 -32zM342 423c-5 -13 -12 -21 -20 -21c-9 0 -16 10 -16 25c0 13 7 26 16 35zM487 299h-11v17h11c6 0 10 -3 10 -8s-4 -9 -10 -9zM426 283c-10 0 -16 8 -16 17c0 8 6 17 16 17s16 -9 16 -17c0 -9 -6 -17 -16 -17z" />
    <glyph glyph-name="i.dot" horiz-adv-x="263" 
d="M88 630v85h88v-85h-88zM93 0v517h77v-517h-77z" />
    <glyph glyph-name="fraction" unicode="&#x2044;" horiz-adv-x="100" 
d="M-215 0l248 359l228 341h54l-248 -359l-228 -341h-54z" />
    <glyph glyph-name="zero.num" 
d="M199 303c-88 0 -146 83 -146 201v3c0 118 59 203 147 203c87 0 147 -84 147 -201v-3c0 -118 -61 -203 -148 -203zM199 662c-58 0 -93 -64 -93 -154v-3c0 -90 36 -154 94 -154s94 64 94 154v3c0 90 -37 154 -95 154z" />
    <glyph glyph-name="one.num" horiz-adv-x="325" 
d="M211 313h-52v339l-86 -33l-13 45l110 42h41v-393z" />
    <glyph glyph-name="one.num_alt" 
d="M349 313h-273v45h115v294l-101 -36l-13 44l124 46h41v-348h107v-45z" />
    <glyph glyph-name="two.num" 
d="M59 313v44l144 126c53 45 77 74 77 112c0 40 -32 68 -74 68s-74 -23 -104 -67l-38 27c34 52 76 87 145 87c72 0 125 -48 125 -111c0 -55 -29 -89 -91 -142l-113 -97h207v-47h-278z" />
    <glyph glyph-name="three.num" 
d="M197 303c-64 0 -112 29 -146 70l35 35c31 -37 68 -58 112 -58c45 0 81 29 81 72c0 46 -43 71 -101 71h-33l-10 33l126 126h-188v48h254v-42l-124 -123c72 -6 129 -41 129 -112s-59 -120 -135 -120z" />
    <glyph glyph-name="four.num" 
d="M300 399v-88h-48v88h-190l-11 46l193 260h56v-262h54v-44h-54zM252 443v201l-148 -201h148z" />
    <glyph glyph-name="five.num" 
d="M196 303c-57 0 -105 27 -143 65l35 37c33 -35 69 -55 110 -55c55 0 91 35 91 80c0 46 -38 74 -91 74c-32 0 -60 -8 -85 -20l-35 21l14 195h231v-50h-188l-8 -114c22 10 49 15 78 15c76 0 137 -44 137 -118c0 -78 -63 -130 -146 -130z" />
    <glyph glyph-name="six.num" 
d="M199 304c-40 0 -75 15 -97 37c-27 28 -48 68 -48 151v2c0 128 63 216 160 216c50 0 80 -16 111 -45l-30 -39c-23 22 -49 37 -83 37c-57 0 -104 -62 -105 -148c23 25 51 45 102 45c68 0 126 -46 126 -124c0 -76 -59 -132 -136 -132zM198 349c50 0 87 34 87 84
c0 51 -34 83 -84 83c-51 0 -89 -34 -89 -83s39 -84 86 -84z" />
    <glyph glyph-name="seven.num" 
d="M163 311h-59l173 339h-209v50h269v-40z" />
    <glyph glyph-name="eight.num" 
d="M200 303c-83 0 -143 46 -143 113c0 47 30 79 72 97c-34 17 -61 46 -61 89c0 64 60 108 133 108s132 -45 132 -108c0 -44 -26 -72 -60 -89c41 -17 71 -50 71 -95c0 -70 -61 -115 -144 -115zM201 666c-49 0 -83 -27 -83 -66c0 -40 35 -68 83 -68c47 0 82 28 82 68
c0 39 -34 66 -82 66zM201 490c-56 0 -94 -30 -94 -72s37 -71 94 -71c56 0 93 29 93 71s-38 72 -93 72z" />
    <glyph glyph-name="nine.num" 
d="M201 709c40 0 75 -15 97 -38c27 -27 48 -67 48 -150v-2c0 -131 -63 -216 -160 -216c-50 0 -85 18 -116 47l29 39c25 -24 51 -39 89 -39c57 0 104 58 105 144c-23 -25 -51 -45 -101 -45c-69 0 -127 46 -127 126c0 77 59 134 136 134zM199 493c51 0 89 34 89 85
s-39 86 -86 86c-50 0 -87 -35 -87 -86c0 -52 34 -85 84 -85z" />
    <glyph glyph-name="zero.den" 
d="M199 -10c-88 0 -146 84 -146 201v3c0 118 59 203 147 203c87 0 147 -83 147 -201v-3c0 -118 -61 -203 -148 -203zM199 349c-58 0 -93 -64 -93 -154v-3c0 -90 36 -154 94 -154s94 64 94 154v3c0 90 -37 154 -95 154z" />
    <glyph glyph-name="one.den" horiz-adv-x="325" 
d="M211 0h-52v339l-86 -33l-13 45l110 43h41v-394z" />
    <glyph glyph-name="one.den_alt" 
d="M349 0h-273v45h115v294l-101 -36l-13 45l124 46h41v-349h107v-45z" />
    <glyph glyph-name="two.den" 
d="M59 0v44l144 126c53 45 77 74 77 112c0 40 -32 68 -74 68s-74 -23 -104 -67l-38 27c34 52 76 87 145 87c72 0 125 -48 125 -111c0 -55 -29 -89 -91 -142l-113 -96h207v-48h-278z" />
    <glyph glyph-name="three.den" 
d="M197 -10c-64 0 -112 29 -146 70l35 35c31 -37 68 -58 112 -58c45 0 81 29 81 72c0 46 -43 71 -101 71h-33l-10 33l126 126h-188v48h254v-42l-124 -123c72 -6 129 -41 129 -112s-59 -120 -135 -120z" />
    <glyph glyph-name="four.den" 
d="M300 87v-89h-48v89h-190l-11 45l193 261h56v-263h54v-43h-54zM252 130v201l-148 -201h148z" />
    <glyph glyph-name="five.den" 
d="M196 -10c-57 0 -105 27 -143 65l35 37c33 -35 69 -55 110 -55c55 0 91 35 91 80c0 46 -38 74 -91 74c-32 0 -60 -8 -85 -20l-35 21l14 195h231v-50h-188l-8 -114c22 10 49 15 78 15c76 0 137 -44 137 -118c0 -77 -63 -130 -146 -130z" />
    <glyph glyph-name="six.den" 
d="M199 -9c-40 0 -75 15 -97 38c-27 27 -48 67 -48 150v2c0 128 63 216 160 216c50 0 80 -16 111 -45l-30 -39c-23 23 -49 37 -83 37c-57 0 -104 -62 -105 -148c23 25 51 45 102 45c68 0 126 -46 126 -124c0 -76 -59 -132 -136 -132zM198 36c50 0 87 34 87 84
c0 51 -34 83 -84 83c-51 0 -89 -34 -89 -83s39 -84 86 -84z" />
    <glyph glyph-name="seven.den" 
d="M163 -2h-59l173 339h-209v50h269v-39z" />
    <glyph glyph-name="eight.den" 
d="M200 -10c-83 0 -143 46 -143 113c0 47 30 79 72 97c-34 17 -61 46 -61 90c0 63 60 107 133 107s132 -45 132 -107c0 -44 -26 -73 -60 -90c41 -17 71 -50 71 -95c0 -70 -61 -115 -144 -115zM201 353c-49 0 -83 -27 -83 -66c0 -40 35 -68 83 -68c47 0 82 28 82 68
c0 39 -34 66 -82 66zM201 177c-56 0 -94 -30 -94 -72s37 -71 94 -71c56 0 93 29 93 71s-38 72 -93 72z" />
    <glyph glyph-name="nine.den" 
d="M201 396c40 0 75 -15 97 -37c27 -28 48 -68 48 -151v-2c0 -131 -63 -216 -160 -216c-50 0 -85 18 -116 48l29 38c25 -24 51 -39 89 -39c57 0 104 58 105 144c-23 -25 -51 -45 -101 -45c-69 0 -127 46 -127 126c0 77 59 134 136 134zM199 180c51 0 89 34 89 85
s-39 86 -86 86c-50 0 -87 -35 -87 -86c0 -52 34 -85 84 -85z" />
    <glyph glyph-name="acute" unicode="&#xb4;" horiz-adv-x="500" 
d="M182 595l94 145l80 -37l-114 -108h-60z" />
    <glyph glyph-name="hungarumlaut" unicode="&#x2dd;" horiz-adv-x="500" 
d="M241 595l95 145l75 -37l-110 -108h-60zM92 595l94 145l75 -37l-109 -108h-60z" />
    <glyph glyph-name="caron.alt" horiz-adv-x="500" 
d="M208 584l15 165h74v-3l-52 -162h-37z" />
    <glyph glyph-name="grave" unicode="`" horiz-adv-x="500" 
d="M258 595l-114 108l80 37l94 -145h-60z" />
    <glyph glyph-name="circumflex" unicode="&#x2c6;" horiz-adv-x="500" 
d="M110 595l106 131h68l106 -131h-66l-75 67l-75 -67h-64z" />
    <glyph glyph-name="caron" unicode="&#x2c7;" horiz-adv-x="500" 
d="M390 726l-106 -131h-68l-106 131h66l75 -67l75 67h64z" />
    <glyph glyph-name="breve" unicode="&#x2d8;" horiz-adv-x="500" 
d="M250 593c-83 0 -142 46 -148 125h56c12 -37 41 -63 92 -63s80 26 92 63h56c-6 -79 -65 -125 -148 -125z" />
    <glyph glyph-name="tilde" unicode="&#x2dc;" horiz-adv-x="500" 
d="M319 595c-23 0 -47 10 -72 21c-22 9 -45 19 -62 19c-26 0 -37 -13 -52 -49l-47 13c20 75 47 105 95 105c23 0 47 -10 72 -20c22 -10 45 -20 62 -20c26 0 37 13 52 49l47 -13c-20 -75 -47 -105 -95 -105z" />
    <glyph glyph-name="macron" unicode="&#xaf;" horiz-adv-x="500" 
d="M94 615v63h312v-63h-312z" />
    <glyph glyph-name="dieresis" unicode="&#xa8;" horiz-adv-x="500" 
d="M293 595v95h89v-95h-89zM118 595v95h89v-95h-89z" />
    <glyph glyph-name="dotaccent" unicode="&#x2d9;" horiz-adv-x="500" 
d="M203 595v96h94v-96h-94z" />
    <glyph glyph-name="ring" unicode="&#x2da;" horiz-adv-x="500" 
d="M250 593c-60 0 -109 47 -109 105c0 57 49 104 109 104s109 -47 109 -104c0 -58 -49 -105 -109 -105zM250 629c37 0 69 31 69 69c0 37 -32 69 -69 69s-69 -32 -69 -69c0 -38 32 -69 69 -69z" />
    <glyph glyph-name="acute.cap" horiz-adv-x="500" 
d="M178 762l100 129l79 -36l-115 -93h-64z" />
    <glyph glyph-name="hungarumlaut.cap" horiz-adv-x="500" 
d="M87 762l100 129l77 -36l-115 -93h-62zM240 762l101 129l77 -36l-115 -93h-63z" />
    <glyph glyph-name="grave.cap" horiz-adv-x="500" 
d="M322 762h-64l-115 93l78 36z" />
    <glyph glyph-name="circumflex.cap" horiz-adv-x="500" 
d="M104 762l110 118h72l110 -118h-72l-75 60l-75 -60h-70z" />
    <glyph glyph-name="caron.cap" horiz-adv-x="500" 
d="M396 880l-110 -118h-72l-110 118h72l75 -60l75 60h70z" />
    <glyph glyph-name="breve.cap" horiz-adv-x="500" 
d="M250 760c-83 0 -142 42 -148 114h60c11 -32 39 -52 88 -52s77 20 88 52h60c-6 -72 -65 -114 -148 -114z" />
    <glyph glyph-name="tilde.cap" horiz-adv-x="500" 
d="M320 762c-23 0 -50 11 -77 22c-20 8 -41 17 -57 17c-26 0 -37 -14 -52 -48l-49 14c20 69 47 102 94 102c24 0 50 -11 77 -22c21 -8 42 -17 57 -17c26 0 37 14 52 47l49 -14c-20 -69 -47 -101 -94 -101z" />
    <glyph glyph-name="macron.cap" horiz-adv-x="500" 
d="M86 783v64h328v-64h-328z" />
    <glyph glyph-name="dieresis.cap" horiz-adv-x="500" 
d="M297 762v90h93v-90h-93zM110 762v90h93v-90h-93z" />
    <glyph glyph-name="dotaccent.cap" horiz-adv-x="500" 
d="M202 762v90h96v-90h-96z" />
    <glyph glyph-name="ring.cap" horiz-adv-x="500" 
d="M250 760c-60 0 -111 42 -111 99s51 99 111 99s111 -42 111 -99s-51 -99 -111 -99zM250 798c38 0 67 27 67 61c0 35 -29 61 -67 61s-67 -26 -67 -61c0 -34 29 -61 67 -61z" />
    <glyph glyph-name="commaaccent" unicode="&#x326;" horiz-adv-x="500" 
d="M191 -243l-7 30c45 8 64 26 61 60h-40v83h90v-71c0 -63 -35 -95 -104 -102z" />
    <glyph glyph-name="cedilla" unicode="&#xb8;" horiz-adv-x="500" 
d="M225 -155l-75 34l92 134h61z" />
    <glyph glyph-name="ogonek" unicode="&#x2db;" horiz-adv-x="500" 
d="M330 -120v-44c-4 -1 -8 -1 -12 -1c-84 2 -128 35 -128 81c0 37 24 65 65 100l53 -13c-36 -30 -52 -50 -52 -76c0 -28 22 -44 74 -47z" />
    </font>
</defs>
</svg>
